<mxfile host="app.diagrams.net" modified="2023-10-27T19:04:00.105Z" agent="Mozilla/5.0 (Windows NT 10.0; Win64; x64) AppleWebKit/537.36 (KHTML, like Gecko) Chrome/118.0.0.0 Safari/537.36" etag="yYbceLSRsOH9KaY_yod1" version="22.0.8" type="device">
  <diagram name="Page-1" id="XRRV23stO9ySTut1m-rW">
    <mxGraphModel dx="1723" dy="717" grid="1" gridSize="10" guides="1" tooltips="1" connect="1" arrows="1" fold="1" page="1" pageScale="1" pageWidth="827" pageHeight="1169" math="0" shadow="0">
      <root>
        <mxCell id="0" />
        <mxCell id="1" parent="0" />
        <mxCell id="w4K-Enm0TcKxF_S3Y-CY-3" value="" style="rounded=0;whiteSpace=wrap;html=1;shadow=0;fillStyle=auto;fillColor=default;gradientColor=none;" parent="1" vertex="1">
          <mxGeometry x="20" y="199" width="1090" height="320" as="geometry" />
        </mxCell>
        <mxCell id="w4K-Enm0TcKxF_S3Y-CY-4" value="listing postgres Database" style="shape=cylinder3;whiteSpace=wrap;html=1;boundedLbl=1;backgroundOutline=1;size=15;fillColor=#dae8fc;strokeColor=#6c8ebf;" parent="1" vertex="1">
          <mxGeometry x="901.46" y="270" width="110" height="155" as="geometry" />
        </mxCell>
        <mxCell id="w4K-Enm0TcKxF_S3Y-CY-5" value="" style="rounded=0;whiteSpace=wrap;html=1;strokeColor=#A680B8;strokeWidth=2;" parent="1" vertex="1">
          <mxGeometry x="240" y="561" width="240" height="260" as="geometry" />
        </mxCell>
        <mxCell id="w4K-Enm0TcKxF_S3Y-CY-6" value="&lt;font color=&quot;#ea6b66&quot; style=&quot;font-size: 17px;&quot;&gt;&lt;b&gt;Back-end&lt;br&gt;&lt;/b&gt;&lt;/font&gt;" style="rounded=0;whiteSpace=wrap;html=1;fillStyle=auto;strokeWidth=2;strokeColor=#EA6B66;fillColor=none;spacingTop=0;spacingBottom=240;spacingRight=0;spacingLeft=135;" parent="1" vertex="1">
          <mxGeometry x="460" y="224" width="230" height="270" as="geometry" />
        </mxCell>
        <mxCell id="w4K-Enm0TcKxF_S3Y-CY-7" value="&lt;font color=&quot;#ea6b66&quot;&gt;&lt;b&gt;ListingAPI&lt;/b&gt;&lt;/font&gt;" style="rounded=0;whiteSpace=wrap;html=1;fillStyle=auto;strokeWidth=1;strokeColor=#EA6B66;fillColor=none;" parent="1" vertex="1">
          <mxGeometry x="470" y="254" width="210" height="70" as="geometry" />
        </mxCell>
        <mxCell id="w4K-Enm0TcKxF_S3Y-CY-8" value="&lt;b style=&quot;border-color: var(--border-color); color: rgb(234, 107, 102);&quot;&gt;ListingAPI&lt;/b&gt;" style="rounded=0;whiteSpace=wrap;html=1;fillStyle=auto;strokeWidth=1;strokeColor=#EA6B66;fillColor=none;" parent="1" vertex="1">
          <mxGeometry x="470" y="334" width="210" height="70" as="geometry" />
        </mxCell>
        <mxCell id="w4K-Enm0TcKxF_S3Y-CY-9" value="&lt;b style=&quot;border-color: var(--border-color); color: rgb(234, 107, 102);&quot;&gt;ListingAPI&lt;/b&gt;" style="rounded=0;whiteSpace=wrap;html=1;fillStyle=auto;strokeWidth=1;strokeColor=#EA6B66;fillColor=none;" parent="1" vertex="1">
          <mxGeometry x="470" y="414" width="210" height="70" as="geometry" />
        </mxCell>
        <mxCell id="w4K-Enm0TcKxF_S3Y-CY-13" value="" style="shape=image;verticalLabelPosition=bottom;labelBackgroundColor=default;verticalAlign=top;aspect=fixed;imageAspect=0;image=data:image/png,iVBORw0KGgoAAAANSUhEUgAAAfQAAAH1CAYAAAAAigwvAAAABHNCSVQICAgIfAhkiAAAAAlwSFlzAAADdwAAA3cBr5JgKAAAABl0RVh0U29mdHdhcmUAd3d3Lmlua3NjYXBlLm9yZ5vuPBoAACAASURBVHic7d13nFxl2f/x73VmdjeVVDokCKEZkZIeWkRQOlKSRykiFlB4VHgQQfH5uTYUARsCAo8VEUwICFhQiAQkhN1NQjOQEBAQMISEhPTs7sy5fn+kkM22OTNn5szMft6vl3F359zXfbHZ7HdOvU0ASmrU+TfXBANqhyhjQxRqiJn6m3l/ybZz10Az9Q/d+5tZP8m2kyR3rwukPgolN+8jqU6S5OovU3pT6YGSTFJK0nZtZ/WtP2mWtG6rz9dIapXkcr2zafMWM60NZStN4QaX1ppppcvXW6h1Mlspt5Wh+zspC1dkg2BFbXPNipU79Xpnfv2Ulpi/ZQByYEk3AFSDw664fVDrWt/ZUq07ZGW7mmkHyXaWaye5bS/TEJkPlWuIpO22CdjceZ7jcp2vw80iz7lW0gr38K0gsCUe+lJTsFTmb7q01ORLs26LLZta3HTjeW9GLQ6gYwQ60I1R599cU9u3z/CM2XAp3N1CG67Ah5lrmMt3lzRMUu9ouVfVgd71uLZfbpG02KTXJb3upv+Y+7/d7Q3JXpanX2684dy382wA6FEIdEAbQ1v9a/dKh8G+btpLoY2Q2V5y30um4dKWw9rb8A4/7B6Bnvs4XyXpZUkvyzb+vytYpFTwwh6v93t12rQp2TwbBKoKgY4eZVL9w+k1y1/bz1L2XslHmoL9pfC9kvaWVBu9YrUHer7zdTE2cqB3qdmlF0xaKIUvmNmCrAcLW+pq5z9z7cfXRikEVDoCHVVrUv3D6bUrX93XLDXK3EZJPsqlgyX1abtlTKFFoOc2Nt5A73icKytpoUxzzTVXoc/NZDRv7i0XrOt0OFDhCHRUCbcJl9z+vox0uJkfIukQSe+TVLPx5S7HFjJvnmUI9MjjoszXcYmMXI1u/oBb6q9zhrw+R/X1YZ6TAWWHQEdlqq8Pxq3Z531h6JMC9yPddITkQzvdnkDPc7OqCvS2TMvketBcf2muqbn/qR+d906eEwNlgUBHxRh32e17KwyPdw8myfzwTbeAbaWL3+IEep6bVXGgt9242aU/Bu63rdl+8F+4lx6ViEBHGXMbc+ntoy20j8j8FEkju9k+r5diu4qbQM9tbHkG+taWy/R7U/Cbhus/80SezQAlR6CjrIw6/+aaoG+/I2X+EXOdItNuuY+u8kD3PMdFmY9Ab8NkjaHrur7b/+fumfX1mTwbA0qCQEdZmHDJbSOyFpwt6ZPa+LCWPBDoBc9HoHe2ySuS/6ylpu5mzrWjXBHoSMyIz/+5bnDtO6fJ/TOSJmnLz2MRQotAz3MzAn0bK938x7Vra66d9YtPrY4yECg2Ah0lN+GSX++aTaX/R65zJQ2JL0QI9ILnI9BzHfKWSd/MtOqWubdc0Bq9ABA/Ah0lM+6Lv9vRU36JTF+Q1HvLCwR6hCEEek7jSvJ3IUl6Ve7/r/HGC26TrJBvFlAwAh1FN+ry3wxLZVNXyPVJbV72c2sEeoQhBHq34yIPLyTQN35g0izz7GeeuPGi56MXA+JBoKNoDrvi9kEtrf4NyS5QV89JJ9AjDCHQux2XQKBv0uzSt8NWu5rD8EgCgY4icBvzpds/bW5XSer86W1bNu/2C7nOm9dLBHpXmxHoXQ/paKw9I/NPNf70s3OiFwbyR6AjVmMuuX1PBfZzk0/KeRCBHmEIgd7tuMQDXZKUldv3hi8d9HWWd0WpEOiIzdgv3f4puf1IUr9IvyQJ9AhDCPRux5VHoG/2sHv2zKYbL3oz+iRANAQ6Cjbpwqn91vXO/EzSWe9+lUCPNDbnIQR6t+PKK9Al6S0PgrOarj//oegTAbkLkm4AlW3ipbcPX9s787jahDmArexgYfiXsf9905clZycKRcMPF/I2+pLbxwaB3Sdpx/avsoceaWzOQ9hD73Zc+e2hbz3w1322X/JpnguPYiDQkZexl91xuEL/o6TtOt6CQI80NuchBHq348o60CWXHqxdX3M6j45F3Ah0RDb2S787SqHfL7M+nW9FoEcam/MQAr3bcWUe6JvGzZayJzXe8N9v51kAaIdz6Ihk3KW3j5LrD12HOYBuTJBS/xhz4Q15riwItEegI2fjL75jD5f9WVL/pHsBqsD+ZvbQuC/e2sE1KEB0BDpyMuGSqb3DlN8laYekewGqh+0TZjIPHva5Gwcl3QkqH4GOnISpzC2SRiXdB1BtTDqgJdB9o86/mdNYKAiBjm6N+5/fne6us5PuAygvhVwwuC07LKgJ/zDi8z9pvxohkCMCHV0a98Xf7eimW5PuA6h2Jh0zOKz5YdJ9oHIR6Ohaja6VxPk9oDQ+N+bCmz6RdBOoTNyHjk6NveyOw+X+iDyfnxPuQ480Nuch3Ife7biS3YdehO/NRuss9AkNN134TAEToAdiDx2dc31LvOkDSq2PBzb9oIt/ODDpRlBZCHR0aMxlvztW0pFJ94FKFecFYz3SiNqWXr9IuglUFgIdHTIPLk66B6CHO3XMRTdNSboJVA4Op6KdUZfduVfK/QVJgeR57myV9hx6XU1Kuw3tp369alRXk5YkrVnfohVrm7VkxVqFYVc1OYfe+Walvp4hhjkr/xz61pssqXXf/7GbLlxRwGToIdJJN4Dyk5JfpDI/ejOoXy8dMXI3jRqxo96/x/baaVBfWSdvT5tbs3pp8Tt68qUlanhhsZoWvdlNwANlY8cW0zWSPp10Iyh/7KGjjVH19/dJrVnzmqTBG79SXnvoY/fZWVMO21cT9ttZ6VR+7zmWrVqvv8z5l+58dIGWrVrf5XxdYw89r/nYQ89t7LubuJsd03TDZ2cUMCF6AAIdbYz70p0fdfkd736lPAL9oD130BdOOkQjhw3Jp5kOtWSyuveJF3XLA09r1brmPCoQ6HnNR6DnNnarTUxa0HuHJQfMrK/PFDApqhyH3NGGy09Kuoet9e1Vo/85ZZROGLNXp4fU81WbTmnyYfvq6IOG6wd/aNLf5r0S7wSd4nA/onFpv3VLdjhL0q+T7gXliz10bDF58tTUq8OzSyRttRuc3B76vrsO0lUfP1y7DS3Naq33PvGirr27US2ZbI4j8t1DzzPQ2UPPbVwV7qFv8srapUP2nT9tSksBE6OKlfWFTyitV4b5oWoT5skZPWIn/eyiY0oW5pJ0yvgR+tlFH9KAvqyPgbK0R9/tl56TdBMoXwQ6tjD5CUn3IEmHj9xNPzr/A+pTV1PyuUcOH6obPneM+veuLfncQPfsf0dOnsoPJzpEoGMLk09Kuof3DR+qb599qGryvII9DnvvMkg/Ov+D6l3LJSYoO8P77fA2SxmjQwQ6JEmjzr+5xk3vb/dCCa/fGty/l75/3hHqVQZB+r7hQ3XpqWOSbgNox90/k3QPKE8EOiRJNQMGHCCpV1LzB2b6zjmHaUj/xFpo56RxI3TsqPck3QawrfFjLvrpyKSbQPkh0CFJyrqPSnL+U8bvpUP22iHJFjp06aljNJCL5FBmTMEnk+4B5YdAhyTJZIkF+nZ9anXh8QclNX2XtutTpwuOK8/e0IO5zh3x+Z/wThNtEOjYxNufPy+RKYftq+36lO+FuyePG6GdBvVNug1ga0MGZVNlcVcKygeBjs32SGLSupqUphy2TxJT5yydCnTmke9Nug2gDZNOS7oHlBcCHZpU/8teknZKYu4jRu5WEQ9yOW70e1SbTnW+AU9zRamZHTepvj75W0JQNgh0aN2q3sOU0GOAjz1kjySmjWy7PnUat+/OSbcBvMs1eP1b249Pug2UDwIdslQyh9trUoFGjdgxianzMn6/XZJuAWgjNJuUdA8oHwQ6FLoPT2LekcOGVtTT2EbvnchZCaBTgevIpHtA+SDQIZMlcgP4vrsOSmLavA3ffkBZPMUO2Myl8aqv5/c4JBHokGSmRJJ12PalW0ktDmbS7iVc/a0qcfFg3PqNWrZzed8mgpIh0CF3H5jEvDsM7JPEtAXhfnSUm7SHPPkIkgh0SHJZIoGexPKoharEnlHlQue57pBEoEOSyRM55F5X08V93WWqV23l9YxyE+95Bw+0Z6wFUbEIdEiyAUnM2tyaTWLagmxoqbyeUeVceyXdAsoDgQ7JPZE1S9c1tyYxbUHWbqi8nlGBou3E71akLlBhCHRIpkRODL+5Yl0S0xZk8Yo1SbcAtGXaXvJEnvSI8kKgQzIlcnP1v5euSmLavIXuen3Z6qTbANpy1Y77/PXcTwkCHZI8mT30Ba8vT2LavL385sqKPO9fWbhRPR9Baw2BDgIdkpRMoD/32tsVdR59zotvJt0C0KGMefkvWYiiI9AhKZlD7tnQ1biockLyiQX/SboFoEMpAh0i0LFRYj8HD8x7JampI1mxZoMaFhLoKE/uxhOPQKAjWbOee0Nvr96QdBvd+mPjS8qGnN8FUL4IdCSqJRPqzkcXJN1Gl1oyWd356PNJtwEAXSLQkbi7Zi0q6730u2Yt1LJV65NuQ1wBDqArBDoSt665Vdff/2TSbXRo+eoN+vlfn0m6DQDoFoGOsvDAvJf1+PPlddGZu/TdaU9oDY97BVABCHSUBXfpG3fM1tKV5fM42Kn/WKBH//la0m0AQE4IdJSNd9Y264u3PqzV61uSbkVNi97U9ffPTboNAMgZgY6y8tLid/SVX/9DG1oyifXwzCtLddkvHlZrNkysBwCIikBH2Wla9KYuvOkhvbO2ueRzN76wWF+8eYbWNyf3hgIA8kGgoyzN//fb+sSP/qL5/367JPO5S7//xwJdcuvfK+r58gCwGYGOsrV4+Vp99oYHdfvM54v6lLb/LF+ji2+doR/c06QMh9kBVKhEFuUActWSyeon98/Tn+b8S/99wsGauP8usdVes6FVdz7yvG57eH6i5+wBIA4EOirCS4vf0SX/97D2222wphy2rz7w/t3Vpy6/9SheeWuV/tT4ku5+/IVN95jzBDYAlY9AR0VZ8PpyffPO2fr+3U0at8/OGr33jjpwj+01bIft1Lu24x/npSvX6aXF72jui0vU8MJiLXx9eYm7BoDiI9BRkTa0ZPTIP1/TI1se/OLafkAf9e1Vo141KUnS6vUtWrGmeeNFbuyEA6hyBDqqxtKV67R0ZdJdAEAyuModAIAqQKADAFAFCHQAAKoAgQ4AQBUg0AGgInCrBrpGoAMAUAUIdAAAqgCBjurHkUoAPQCBDgBAFSDQAQCoAgQ6gCrAeRWAQAcAoAoQ6AA2YicXqGgEOgAAVYBABwCgChDoAABUAQIdqHqcHAd6AgIdAKLg/RHKFIEOAEAVINABAKgCBDoAAFWAQAcAoAoQ6OjhuMIJQHUg0AEAqAIEOgAAVYBABwCgChDoAABUAQIdXeCCMQCoFOmkG0DyzO3Hbt6ng1cKyPR8B5b6TURM81kJ5sz/W/pemU7KczSACkGgQw3XffSbSfeA4hlz8c/PMjcCHahyHHIHAKAKEOgAAFQBAh0AgCpAoAMAUAUIdAAAqgCBDgBAFSDQAQCoAgQ6AABVgEAHAKAKEOgAAFQBAh1AD8YCRKgeBDoAAFWAQAcAoAqw2lqeRl0+dUBti1KZutRAs9a0edA/dKtTNuxgGdJKlSnNNNk4ipSo10Tl+Y3KamS05V3Rk3jTEQcrFQzJeUBeP4Yx//s0z8ps1aZPWtXaslzpzHIbPXddvBNVFgK9A6POv7kmGDBopIJgH7nvHkjD3LS7XLtL2k3STnJXtkayMCspkEsyuRRs+s3Z5am5mNYKz7lMvvOVaD30NmGT74RdHGwqyt/FNmMjlcl3PfQ8U9k4T4wuBPY9uX8o5+1Niv4znOPPrrf7oJPtrO22qbTkaXnToRskvSHXqzJ/RdJCefCMMtlnbeLsNyI2XXF6fKBPqv9lrw1r+h+YTYWHBG4Hu3SIpAMk1co3/sT4lj8AAGWsl6S9ZNpry5sIc6kmkDce9rrks2R6TEH4gI2a/WKinRZBjwz0MVdM3zMIdbSbjl63LjxOgfczNzIbaIN/Eagmvpuk/5Lrv5Q1eePEFyS7Txb+zsbMfjLp7uLQIwJ91Pk31wSDhhwr14lmOlbuw9jrLhP8HQBIxj6Sf0luX/LGiQsk/7ky+oVNnL086cbyVdWBPubyu0aa2zkyP0/SDlwYBADowH6SXaO0vumNE29Xyq+uxEPyVRfo4756745hmDnbQv+EpPdxQRAAIEe9JX1aWTvPGw/9vVLh1ysp2Ksm0Mdfcc8eruwlnm39tEl92BsHAOQpJfmZytoZ3njojcqE36qEQ/EVH+gTLv/DAVnLXhZ69mOqgv8eAEDZqJX8YqX1MW+Y8DkbN/uepBvqSsUG4Lgv3fV+T9lVWWWPl7M/jlIr8akczhwBSdpRpru9acI0hdnP2bjGt5NuqCMVF+gTLpk6OKwLvu5uF6oC+wcAVCjXZFlqojdO+LSNnf1A0u1sq2ICcVL9w+n1G5Z/Muv6jlxDk+4HANAj7Srpz94w8Zsa+/g3rIweYVIRi7OMuezuI9etX/6Uu26WCHMAQKJM5l9X08Q7/PEJvZNuZrOy3kMfdf7NNanBQ6+U+9ckpZLuBwCAd/l/Ka1h/sS4U218w5KkuynbPfTxX757/2DQ0Cfk+roI8wpTNkeg0NPwo4fSmyALHvc5hw1LupEyDHS3cVdMPz80b7KNC6UAAFDO9lQ2+6jPmjg8ySbKKtAn1U/tN/aK6fdsOlfeN+l+AADI0XCl/UF/7NBdkmqgbAJ9wpVTd123IT1TslOS7gUAgDzsrZrw7944ZqckJi+LQB//lT+My2bTcySNSroXAAAKsK88fX8SV78nHuhjr7h7cujh3yUl8o4GAIB4+Wil/NZSz5pooI+5Yvqlkn4vqU+SfQAAELOzvGH8JaWcMLFAH/eV6Reb7Fqppz2HnftqAKCHuMabxh9XqskSCfRxX5l+sbv9MIm5AQAokZRC3eZPjNutFJOVPNDHXX7PF93tB6WeFwCABAyR7JdeglVBSxroYy+f/nk3/6F63GF2AECPZTpajRPOL/Y0JQv0cV+563iZEeYAgB7Ir/PHJ4wo5gwlCfQxl9810j24Q90+k50LxgAAVamvAv+VT51ctLVJih7ooy69f6hZcJ+k7Yo9FwAAZct0qIa/dl6xyhc10CfV/7JXqqb1Pkl7FnMeACgtjiYib9/xOaMGFKNwUQN93YaBt0iaUMw5AACoIDsom76yGIWLFuhjv3L3uZKfU6z6AABUJvuiN4zdJ+6qRQn0cV+evptcPDgGAID2amXBNXEXjT/Q6+sDN/uNpEGx1wYAoBq4TvYnxh0WZ8nYA33MhgMvkekDcdcFUCm4YAzIiVms59JjDfRxX/nDe036Vpw1AQCoUsd604SxcRWLMdDdJP+lpJIv6g4AQEUK/WtxlYot0Md+5Z6Puyu2dxoAAPQAJ3nD2NFxFIol0CfVT+3nblfFUQsAgJ7FLo+jSiyBvq45/RWTdomjFgAAPcxH4lgzveBAH3PlH3aX28WF1ikpLsJFYvjhA9BOWtIFhRYpONAtE/5AUp9C6wAA0GOZX+CLjqsrpERBgT7+q9MPkdkZhdQAAAC2vZa/fXohFQoK9DBMXVHIeAAAsMVFhQzOO9DHXDF9T8lPK2RyAACwmU30xjEj8x1dwB56cLmkVP7jUfa4fgsASstTZ+Y7NK9AH/fVe3c0iaVRETPeQQDo8c52zy+b8xrkYfYS8YhXAABi5sPUNCavVdgiB/qo+vv7yK3g++UAAEAHwuDsfIZFDvRgfeY0mQbmMxkAAOiGabI/PKlX1GHRA910btQxAAAgZwPVd8MxUQdFCvQJV96/q0sfiDoJUNW4lg9A3FynRB0SKdDDbObj4la1hJAaANBz+Ek+dXKkvI12yN3s45G2BwAA+dhBw/49IcqAnAN99JX3jHX5ftF7AgAAkQXRDrvnHOhB1j8avRsAQLGZeWsBg2tjbAVxcj81yua5H3IP7NjIzQDAZlwGUjRZt+a8B7sT6GXL9vKGsfvkunVOgT7xyunD5do//6aKjd8UAHquIJ1pKWB45PudUUJuOd++llOgZ8IUe+cAUKbSa/uuzHuwW12MrSB+8Qa6LPxw3q0AADYpwtFEU8usX3xyTQHjB8fYDeJ3lM8ZVZPLht0G+qT6h9NyO6rwngAA3Yqa+a63JcvrnYK7TPIh+YxFyfRXa83YXDbsNtDXNq84VNKAglsCABTD63mPfGrSAImr3CtATofduw10syDy82QBAKXiL+Q91FI7xNgIisX86Fw26/4cuvsRBTcDACgKV7Aw78HZ8D0xtoLiGeNzRvXpbqMuA33E5/9cJ9mY+HoCgM5w+2leTPkHuod7xtgJiqdWLbXdZnGXgT6w3/rRknOPIgCUKQss/0C3gD30SmF+eHebdBnogacOi68bAEDMfEPd6hfzH+05P4UMCSs00CU/NK5eAAAxMz3/zLWXrc1/vB8cYzcoron+8KR0Vxt0EehuMk2MuyMAQDxcejjvsU9OGijZ7nH2g6Lqp97rD+xqg04Dfczl979XEg8cAIAyFZjlHehyO1CSxdcNis66vuus00APLMvhdqBscAU42vFMS/BIAcPHx9cKSsKty+vaujjkbhPi7gUAEBPXM3NvuWBZAeO7vcgKZSe/QHcT958DQJkq6Py51weSOApbeXbwhrGd3mrYYaAf+uV7+0vlvP45APRsgfn0vAfPffQgSQPj6wYl1Ompkg4DvSUdju3sNQBA4l5tuPHCWXmPDsLjY+wFpeTW6cprHYZ2EAY5LdUGACg9c92W75KpkiTXCTG2g9KKtofu5gQ6KghXgKNnyaRSt+c71ucdvr3E7/iKZX6w/3lEXUcvdRzoEn/ZAFCemub+9IIF+Q9PnSwZp1QrlVudhg56f0cvtftLnXDl/buatEvxuwIAROVmvyysgJ8ZUytIitu4jr7cLtDDjI8ufjcAgOh8Sbp2/a/yHj3n8J0lOzLGhpCEXAPdzQ8qfjcAgMjcfjj7h/+zPu/xFnxUUiq+hpAMH9XRV9ufR0k60Lm+CQA6sjKbTf2soApun4qpFyRrH3/6/X23/WJHF0awh15VeIcEVAOT/2TuLReszHe8zzvqCJlGxtkTEpPS+t4HbPvFNoF+UP09AyUNL1lLAIBcrMlk0j8prET2gnhaQVno4Gh6m0DvtUEHieX0AKDcfKuQhVh83jG7yO30OBtCwrz90fQ2gR4GdnDpukFBOJIO9BSLlqdaf1xQBW+9RFKHDyNBxeo60C1UhzerAwCS4e4Xvnj9F5rzHj/n6AGSPhNjSygP7/epk9vcsdD2ojjTe0vaTuLYzQVQ1qY23XThQwVVCDKflzQgnnZQRnpr99f22foLbQLdpX1L2w8AoBOrLZW+tJAC/sxhg+QqqAbKmPmBW3+6JdAnXHn/ruJdHACUBXe/sOH6z7xeUJFMzWVi3fPq5b7f1p9uCfSMZ/ZrvzUAoPT85003XfjbgirMOXxnuX8hro5QhgLt3/bTTSwM9m+/NVDhuEwClcb0XDaTKjyIg9R3JbV7mhiqiHsngR44gQ4AydqgwM6ce8sF6wop4vMmjZb7OXE1hTJlts/WV7pvCXTf5lg8uzYAUFIutwsar//s0wUV8fpArptY87wHcNVp2L/33PzpVn/htncS/QBAYapl58O/1njjZ39TcJl5j35BEstg9xQebtkZDyRpZP3UWkm7JtYQAPRsNzfecOFVhRbxeUcNl/m34mgIFSKwtoHeL9N7uDpeeQ1AT1AtO7kVyKX7hr815KKC67hMCm+V1C+GtlApXG0DXZnMexJrBgB6KtMjfdf2+q9p06ZkC64176iLJDsmhq5QWbbkdyBJbkagA0Apmf0p2xIcP/NX520otJQ/9YGRMv9+HG2h4rQNdJkIdKAqcSy9TN2ebbFTC709TZL88Qm9ldWdknrH0Bcqz24+Z1SNtDnQnT10ACgNv75x+yUfn3vLBa2xlOvV66cyvS+WWqhEaWVTu238QJLch8kSbQgAyl9hBzxCyb/aeMOFV8fUjXzuUf8t+SfjqoeK9R5JL28+5L5Lsr0AQFVbJvPjYw3zOZMOk/kP4qqHChZqT0kKJDdJOybcDgBUq0drrPXAxp9+7q9xFfSmo/dUYNMl1cRVExUs0B6SFEyonzZIUl2y3QBA1XGT/yTbakfP+unn/xNb0TmThioVPiBph7hqosK5DZektK9L76hUd1sDACJYaG6fa7jxsw/HWdTnnNRHwZp7JedR3XiX+86SFGTTxvlz9FDc0oXYrZf5N5YHLQc23HhBvGE+f3KtgtV3SZoYZ11UAdPOkpRWGOwk4xcbABTo72EYXjjnpgsXxl3Yp05OqXnZbyU7Lu7aqAo7SVI6sHB75541AMhXg0nfbLjhs38uRnGfP7l2Y5hrcjHqoyoM8j+PqEuHskHEOQBEY9Ks0HV1042fvb9Yc/ii4+q06u07ZfpIseZAVTAN2GGntLn6s4MOADkJJX/Qw+C7jTed/0gxJ/IFh/bXquZ7ZfpAMedBlQjCndImDeIMOgB0wbVQpjs9zP6m6aYL/1X06eYcvrPW1fxRpkOKPReqRBDunJb5dmIXHe3wNg893ltumpYKddsTN1zQUKpJfe4H3y/zP0narVRzogqEGpp22YCk+wCAMrDOZY2ycIa5Hmgc+uY81deHpWzAn/zgR+T+a0nblXJeVAGzgWlJBDqAnsW0TG6LXP5s4HpGQTA30xzOnXvL+fGsgBaRu0xPHvVluV+lzatgAtEMSIuL4lB9WiQtlettSUslW+7yNZJaTRZKvnLjZjGdVoj07yfPOYt9BqTD/4Z8fzF00my3/w0xzLdVCXNzd3/HTBtC0zJlw7cDT/0n3T94edb3P7U6z8li509/aAc9mf2N5B9OuhdUMPMBaRnPcUel8qVm9nToeiqQPW+B/yvw4OVd/13z+rRpU7JJdwd0x+cdfbSymV9LrHiJArkGpMVqPXnggrEEZGV6Vq5/SPaPlGcean/lXAAAH+RJREFUn/3Dc99IuikgH/74hN7q3fs78vBicVUy4jEgLVktAYUytVzSDDN7KAxa7mu65rw3k24IKJQ/dfRhUnirQu2XdC+oIqaBaclrk+4D2MpKue5zBdPCtasfmHvLBYlcpATEzed/eLBaMt+V+2fEXjnixiF3lAk30wxJN7/dMvj+F68/vjnphoC4uNcHevKxs9WSuUasYY7iqYsW6ByZR7xWmtn/KfCbG645a1HSzQBx8yc/eIye+sfVMh2cdC+ocqbatKR00n2gp7E3zP1HavVbGq4/a1XS3QBx86c/ME5u35Hrg0n3gh7CNwZ6VrGGOrvx6Iy9Ide31m6X/uX8+iktSXcDxM2fPuoohcHlCv1DSfeCHqc2LSkj9tJRXMvk9t0+2zXfOLP+vA1JNwPEyeeMqlFqwEcku0yhxrBTg4Rs2UMHiiHj0i9C2ZVzf3DmsqSbAeLkTx21q5Q6W6FfJPnuSfeDHq82LYnbguLGG3RJmmHyLzRed/ZzSTcCxMWfnDRQnj5ZpslyHSt5mhvQUCbYQ0fsVpr05YbrzrxVMt7aoOL5vKOGS8HxMp0o6WiZeHYHylHAHjpi49J9YTb72bk/OmexdFbS7QB58XnHba+g9XC5HyG3o2Q6IOmegG6ZMgQ6Cue+zkyXNF531i1JtwLkyqdOTmnv1bsrFe6vMDxQsoMlHSRl9pZkMo6lo4L4xkAvm2UEUZGezJqdOfe6Mxck3ci23Cen9ExmiNLhUKVSgxRme298IegrbXvYtNzOPHXRTyKtlvH3p6vWzPpLSst8qNyHSjZU0o6S9pTeGS6pRqHEk1hRBVoJdOTNTL/N9Ot/wdz6k9Yl2YcvPGmosrUHycODJBsp8z0lf4+eb91VNQokk8JQW35pbz613+YMf9Rf6N1cHtDu5aiXE3TRT4cvRa0fdc3yAr8/3bZXwPcnl9Y81w2BipVJu3yV8YOOaDIy/1rDtWddncTkPn/yTgoyH5brCEmHKat9pHDT72uuwwPQI7WmA2k1vwIRwXKXn9p07VmPlnJSf/4je8iDc6TwZCkzSs67UADYSiYtt1X8akSO/pWVTph73VklOV/uc07qoz41p8t1ntyPlDzgsCkAdMDUkpaJxTHQPdOc1ub08U9eP2Vpsafy5085QJb6gtynyLUdGQ4A3VqVlnwVez3oxmPWHJ7w5PVTivrmz5879X0K7MtynSlXip9LAMiR+8q0m97iOiJ0xqUHmy1z6jPXf3xt0eZYcPr75fqa5GdwbhwA8rIq7dISfoOiYz4jHdac0vTDM9cXpfqCk3eR1/xI7meI3XEAKECwKp0K9VbIr1K0N7vP+pqPzLxxSuxh7l4faMGzn5aH10i+Xdz1AaDnCVemFfoSpUh0tDHHmsNjZ944ZU3chX3hqQdqwbM/k3w8O+UAEBO3lWnrk1miZhYPwiauVzxIndR4/cdivQDOfXJKz3u9Qr9CUjrO2gAArQpm109eIakl6U5QFlaGZic1XTPlzTiL+qLJ22uB/0XmXxNhDgDxC7Q42PRg66LfW4yy1xpIH5lz7Uf/GWdRf+60I5TxpyQ/Js66AICtuC0ONn6g1xJuBUkzv/SJaz82M65y7jJ//vQrZDZD8l3iqgsA6EAYvJmWJDe9YtL4pPtBMkz6bcM1Z14fVz33ySktCG+UdH5cNQEAXXojLUlmepWHy/RY/wyyqdiC1+dPrtXz4W0yTYmrJgCgC6ZmTZi9YuMeuvurLKHaI21QaGfP/mE895r70+f0VbBuuqQPx1EPAJAD12Iz+buH3NlDL4Hy+ia7+6VNP/jY07HUmj95sGztXyQbG0c9AEDOFktSIEnpjL+SaCsoPdOMpus+dlMcpfy1yb0VhPfJCHMAKDnTv6RNgW6tmVdUbruPKKZV2SD1yU23LBbEfXJKa/x2SYfG0BcAIKpQL0qbAn3TOdRYHyaCcuZfnnv1lH8XXMVlWhjeLOnUGJoCAOTD7CVpU6BLkksLk+sGJfR447UfuyWWSi+c8W3JPhVLLQBAfszf3UOXJDMtSK4biSP+JRG628WxHGpfcMZZcn01jqYAAAVobt0m0N3ZQ696dmvTdR9tKrSKz588QtKNMTQEACjMKjviyaXSVoEeepDwHjqKy1e31gT/W3CVlz/RSymfJol1zAEgeYs2f/DuHnra2EOvanbdk9+dUvgiPM2rfyDpoML7AQAUzLVlQa0tgd6YnveqpFieGIays8yasz8stIgvmHyGZJ+LoyEAQAwCPf3uh5vV14eSvZBIQygy+37D9WevKqSCvzR5gOQ/iasjAEAM3J7a/GGwzSuxroWNsrAymwoKv02tNfyupJ0LbwcAEJt05tnNH7YNdLNYnuuNMmK6Ye7VU1YWUsKfnzxKMpZCBYDy8pqNnrts8ydtAt3CkECvLs3WUthhcvf6QPIbJKVi6gkAEAfTU1t/2ibQW6z1ydJ2gyKb2vDjM5cUVGHBPz8j07iY+gEAxOeZrT9pE+ibbmtaXNJ2UERBQaup+aLj6mT6f3F1AwCI1RNbfxJ0sAGH3avD043XTpldUIVsv09K2iWedgAAMXKlst0EuhHo1cBcvyxkvM85v0byy+LqBwAQJ1u49QVxUkeBHnp1B3rPWAMmGwbB7wuq0HfFWZLeE087AIBYuc/a9kvtAt3S6Tml6QZFNKPpmil5r2/vPjkl8yvibAgAEKNA7U6ptgv0hm+f+KKk5SVpCEXiUwsavkjHSto3nl4AALELg8e3/VIHF8WZS2IvvXKFbqk/FVbBzo2pFwBA/JZr/BPtVkjt6Cp3mbyx+P2gKEyNBR1u3/jM9hPjbAkAECd/2Kz9FWEdBnoYGIFeoTy0wvbOW+1jknrH0w0AIHZmD3b05Q4DXS01TUVtBkVjZjMKq+Afj6cTAEBRBJ57oDddc8Kbkv5d1IZQDOvW9tPcfAf7/MkjJI2PsR8AQLxetDFN/+rohY730CWJ8+iVxzR7fv2UlrzHp3WyJIuvIQBAzP7W2QudBropaChOLygWl9o9aCCSUMfF1AoAoBis48PtUld76EH2saI0g6IJXPPyHetzTuoj0+Fx9gMAiFVGqezDnb3YaaBnli6bK2ldUVpCRLk9rzaTCvJf/rZfr/GS6vIeDwAoLrdHbPTclZ293Gmgz73lglZJXO1eOZbPvXpKARcy2qHxtQIAiF0Q/qHLl7scbMZh9wph0vOFVXCubgeA8uUyv7erDboM9FDtV3NBeXKpw9sYIjg4lkYAAPFzm2Njm17rapMuAz1VWzdLUjbWplAknneg+6LJ20vaOcZmAADx6nLvXOom0Bvqj18l6Z+xtYOicdMreQ/O+Mj4OgEAxC6V7fL8udTdOXRJrnI/j57bFeDVzkNbkvdgC/aMsRUAQLwW2dim+d1t1G2gB9LMWNpBUQUpX5r/6HCP2BoBAMTt97ls1G2g13h6hjiPXvbS2TD/QDcNi7EVAECcUtl4Av2x7524Qsr/CWQojXXZPp0+bKBbbjvE2AoAID7P2pg5OV3L1m2gS5KbHiqsHxTbwIHvbChg+NDYGgEAxMf8zlw3zSnQLXQCvczN1Kv5r7ImDYytEQBAXFyZdE6H26UcA3352l6zxHPdy1lG9fVhAeN7xdYJACAujXbo4y/lunFOgf7i9cc3y63TFV6QuEIvWqyJpQsAQHxcOR9ul3IMdEmyILw7ejeoELVJNwAAaCMj6Y4oA3IOdHfdu2kCAABQVPaAjW+I9MCwnAO98bunvS3XI9GbAgAA0YS/iToi50CXJJemR50AAABEslLZ1B+jDooU6EEquFs8NQ4AgCKyO2zi7PVRR0UK9IarTlki6fGokwAAgByZ3ZbPsEiBLkkm/1U+EwEAgG49rzGzZ+czMHKgr8/0/b2k1flMBgAAumD2M7P81gWPHOjPXPvhtXJNzWcyAADQqfXK2G/zHRw50DeO8p/nOyEAAOjQNJs4e3m+g/MK9MbvnjZb8vn5TgoAALZhwc2FDM9vD12Smf1fIRMDAIBNTM/a2NkF3UWWd6Cns8HP5XqnkMkBAIAk2fWFVsg70Gd9/5TVFtjPCm0AAICezZcWcjHcZnkHuiTJ7EeSbSi0CQAAeq7gxnyeDNeuSiGDG646ZYncby+0iS3yuvMOAICK1SzLxnK0u7A9dEmhB9dICmPoBQCAHsZvt7FNb8ZRqeBAn/P9UxZKxipsAABE48oGP4qrWMGBLkmu7BWSWuKoBQBAj+C6xybOfjaucrEEetP3Tv+XSdyXDgBAblwWfjPOgrEEuiSlMv4NsWhLaXDxIABUOJtu4xqfjrNibIH++LWnvSXpB3HVAwCgSrmU/XbcRWMLdEnq06v1WkmL46xZPOzmAgAScVfce+dSzIE+s37KGjP/Qpw1AQCoIq0KUv9bjMKxBrokNXz39Lsk3RN3XQAAqsD1NmbWwmIUjj3QJSkb+EUs3AIAQBvLlbXvFKt4UQJ97lWnL5bpK8WoDQBAhbrSJs5eXqziRQl0SWrs9cwtLs0sVn0AACrIc1rXq6jPaylaoKu+PlQ28zFJsTyjFgCAChXK/QL7wMxMMScpXqBLarpmypsW+JmSssWcBwCAsmX2Axvf8FixpylqoEtSw1WnP+ymol0EAABA+fKFyuj/lWKmoge6JDXVPfMNNz1YirkAACgToVyftomz15dispIEuurrw5pWnS3TSyWZDwCA5F1TikPtm5Um0LXxWe/u/iFxkRwAoNq5ZinVWpQnwnWmZIEubV5m1U4Uq7IBAKqWLVa6dbKNnttayllLGuiS1PC9U+dK+oik5lLPDQBAkbXKwyk2em7JFyoreaBLUuP3Tvu7uT4hqaTvXgAAKC7/QinPm28tkUCXpIarT7tT7qdKKsnVfwAAFJXpmzbuiZ8lNX1igS5JjVef/id3P1bSyiT7AACgIO4/sbGzv55kC4kGuiQ1XX36o0HgR0l6K+leAACIzO1XGvfExUm3kXigS9ITV50+L6XsoTI9k3QvAADkzn6lcY9/ykyedCdlEeiSNPt7U17s02vVOJPfmnQvAAB0w2V+tcY8/kkzhUk3I5VRoEvSzPrzNjRcfcb5kp0raV3S/QAA0IEWmZ1rY564ohz2zDcrq0DfrPHq034j2UTJnku6FwAAtvK2ZMfYmMdvS7qRbZVloEtS49WnPZ1dsfQgk18saU3S/QAAery/KgwPsrGPP5p0Ix0p20CXpLm3XNDacPUZP06ls/u5ND3pfgAAPdI6SRdrzOzjbHzD60k305myDvTNZn9nyhtNV59+hkynmbQg6X4AAD3GDGV9pI2d/eNyOl/ekYoI9M0av3f6PQ29nx3p8pMlNSXdDwCgai2S+xQb+/jRNuGJV5JuJhfppBuIrL4+bJLul3T/mCumH22hfVPmE5JuCwBQDfxlmX1Pa2p/YR+YmUm6mygqL9C30vS90x+S9NCYy+8aaW7nyPzTkoYk3RcAoKK4pIfkfpNe3e0+mzItm3RD+bCkG4jThEum9s7WpY6V+xmSTpS0XbuNvN0HeehmbKcv5zund/mppObGaz/aK8/i8gWT35Y0uLtJOi8Qcfso9fP++8phe+/0k8Lrt3s5xvodvhRT/dh+drv9mY2vfk5D86yf87A86kcaErG+F+nf45ZNq+bf+3xJd8qC39mYx/4VcdKyU9F76Nua/cMp6yXdI+meyZOnpl7ZM9gvMDvUXUdL/kG1Cy0AQM9hK+U+S6a/yoMHbNxjLyTdUZyqKtC3Nm3alKw2vvuaL+mWyZOnpl7bI3Wgm0a7fIRMI9w1wqQRknrnXrmsL3IEAEhZSf+RtFDm8yX7p+RPaPSs58rlMa3FULWBvq1NAT9v0/+24jbuy3fvGlo4zOSDzDXYzfrINbDjSjkEeuwnMro+fGmmijzfg5J5Sq47234p6g9p1Dey1uWnsdYvyiF3azdN1/LIiGIeco/8OyjqIfci1Y/St1so+Uq5r5W0XmarFPgatWTfVE3rGzZ6bms+nVayqjqHjvxwDr0I9cvrHPrtdsCfzo7YAIAKU1H3oQMAgI4R6AAAVAECHQCAKkCgAwBQBQh0AACqAIEOAEAVINABAKgCBDoAAFWAQAcAoAoQ6AAAVAECHQCAKkCgAwBQBQh0AACqQI9ZPhXowYb7MydMLqxEua3Qm+3ww+Qk3EQ2+JuNfmhlsk0gaQQ6UP0Ok+mwtl/qZLnVTldhLXD99G5Xjy1gPfScWstz+dqch+Xx/YlzPXTzAyU9E7EJVBkOuQMAUAUIdAAAqgCBDgBAFSDQAQCoAgQ6AABVgEAHAKAKEOgAAFQBAh0AgCpAoAMAUAUIdAAAqgCBDgBAFSDQAQCoAgQ6AABVgEAHAKAKEOgAAFQBAh0AgCpAoAMAUAUIdAAAqgCBDgBAFSDQAQCoAgQ6AABVgEAHAKAKEOgAAFQBAh0AgCpAoAMAUAUIdAAAqgCBDgBAFSDQAQCoAgQ6AABVIJ10AwBQFL2GSf0OknrvJdXtLtUMlVJ9JauRvFXKrpJalkrNr0vrFkprnpJa3ky6ayBvBDqA6lG7kzT4Q9Kgo6XaHbvYsE5K9ZNqd5H6HSgNOWHjlze8Kq14UFr+oJRZXpKWgbgQ6AAqX91u0o5nSgMnSZbKv06v4dLOn5Z2+rj09gPSkjuk1mWxtQkUE4EOoHIFddIOH5O2nyxZjL/OrFYaerI0+Bhp8W+kZfdIno2vPlAEXBQHoDLV7SaN+PHGQI8zzLcW9JZ2vUDa+0fdHMIHkkegA6g8/cdKe98g9XpPaebrs5+0z0+lPvuWZj4gDwQ6gMoycJK0x9eloFdp500PlEZcs/HKeaAMEegAKsd246TdLyveIfbuBL2lPb8t9X1vMvMDXSDQAVSG3ntJw75a2FXscQjqpPd8Y+N97UAZIdABlL+gtzTsio1hWg7SA6U9yuDNBbAVAh1A+dv5vI1PeysnfQ+Qhp6adBfAFgQ6gPLWey9p8IlJd9Gxnc+RaoYk3QUgiUAHUO52+oRkZfqrKuiz8Ql1QBko038lAKCNe+f9RyfdRdcGHyvVDE66C4BAB1DGhpwoyZLuomtB7cYFYYCEEeiQpDDpBoB2rFYacHjSXeRmUMKBns7ybxgEOiRJLUk3ALTT74CNS5xWgl7DpLpdk5s/ow3JTY5yQaBDItBRjvodmHQH0ST5SNhs2Jzc5CgXBDokaU3SDQDt9N4v6Q6i6bt/cnMHwfrkJke5INAhSW8l3QDQTq8ye5BMd5J78E1WoyYtT2pylA8CHZK0NOkGgDaCXlJ6UNJdRFO7c1IzLzOr56I4EOiQ5Hoj6RaANlJ9k+4gusQu4DOOsEESgQ5JCvylpFsA2ij1WudxCGqTWdbVxb9fSCLQIUlZW5R0C0Abnkm6gzy45NkE5g1fTGBSlCECHVKQmp90C0AbYQVetJ1dL8lLP28QvFD6SVGOCHTI9rvzP5IWJ90HsEV2jeStSXcRTSahC81Dn5fMxCg3BDo2m5N0A8AWHkrNFfYes/n1JGZt0Xa9/pnExCg/BDo2cns06RaANja8nHQH0ax/JYFJ/Wnb+y88JQ6SCHRs5vb3pFsA2lj7bNIdRLPmqQQmtYcSmBRlikDHRvvv/5R4YhzKyZonk+4gd2GLtDaRa0tnJDEpyhOBDkmSWX0o93uT7gPYovkNaX2F3JG1anbpr8x3rdZKn1XaSVHOCHRsJZiedAdAGyseTLqD3CxPoE/TH+0DM1k2FVsQ6HjX2oF/l2lJ0m0AWyz/q5RZlXQXXdvwb2lVQwIT+90JTIoyRqBjCxt9S6tcv0m6D2CLcIP09h+S7qJrS36nBB4o8442NP+p1JOivBHoaMuD/1Mij7sCOrH0LqnlzaS76Nja+dKKRG4Quc0mzq7Ax+mhmAh0tGH7//4FmXjnj/IRtkj/uVFl9z7TM9LrP1ECfbnC7K2lnhTlj0BHe6GuTboFoI1VjdKyMrsJ4z+3SOv/lcTMf7XRj1bYTfooBQId7dj+0x6R7OGk+wDaWPzz8nnYzIqHpaWJndvnDTc6RKCjY4H+R1KYdBvAFt4qvfKN5B8Ju/pJ6d/fV0KnAGbZIQ/zMBl0iEBHh2yfaU9JfnvSfQBtZNdIL10mrXsumflXPSG9/L/Jrddu/rVkJkYlINDRuXTNlZK4khblJbtG+tdXpJX/KO28y+6VXq6XwsTWQrnXDp45M6nJUf4IdHTKRtz5muQ/SLoPoJ1wg/Tqt6U3bih+wGZXS698S3r9p5JniztX59Yrlb0kqclRGQh0dK2u/7clY71llKe375MWflpa+XgRiru0/AHp+fOkdxJfXfi7duCjFbaeLErNkm4A5c/nnz5SKZsjqVfHG2z5I0rViJsVob53+knh9du9HGP9Dl+KqX6nZQqs3+3wAupv/rDPPtIOH5W2Gy9ZKmK9rUu3SO88Ii25Q9rwWvR+ct0+9yFzVTdkoo2c1hJxEvQwBDpy4s+f8SWZrun4xS1/RKkYcTMCveuXCPQt0oOkQZOk/mOkvu+Tgrruy2XXSmuf2fhM9nce3XiYPVJbRQv0tQrsEDtoxgsRJ0APRKAjJ+71gRb+80FJR7V/ccsfUSpG3IxA7/olAr1DlpZ6DZPqdpVqdpRSvSSr3XjePVwntSyRml+Tml+XfOu7ND1iW0UKdLNP2MEzfh2xOHooAh0584WTd5V7g6Rd276w5Y8o1SJuRqB3/RKBXpT6yQb6nXbI3z8WsTB6MC6KQ85s32lvKOUnSVqTdC9AlZuvMPhs0k2gshDoiMT2nv6kTFMkJXb/DlDl/iPpBBv90MqkG0FlIdARme17118kuzTpPoCq41otC0+wQ/7+atKtoPIQ6MiL7Tftx5K+n3QfQBVpVWCn28Ezn0q6EVQmAh15s/3uulymq5LuA6gCGUnn2sEzHky6EVQuAh0FsX3vulKuK5LuA6hgLZJ/1A75+x1JN4LKRqCjYPbeu66W6ctJ9wFUoHVyP9kOeXh60o2g8hHoiIXtN/0amS7UxkOHALq3UmHwYRv18F+TbgTVgUBHbGy/6TcptGMlLU+6F6DMvSL5kTb6oceSbgTVg0BHrGzkXTOUzo6V9FzSvQDlyR9RkB5nhzz8dNKdoLoQ6Iid7f2Hl7Qhe6hkDyTdC1BGXNI1WjTkg3bg395KuhlUH57ljqLZuKDLs5fK9W1Jtdu8mmORiNtHqc+z3COU4VnuBdZfLdNn7KAZv4/YCJAzAh1F58+d+j5Z8DtJB2z11RwHR9w+Sn0CPUIZAr2A+o8rzJ5ro2a+GLEJIBIOuaPo7L33/FP9gnGSfqLov1mBymTaIPMrtGjwEYQ5SoE9dJSULzzjOIV+g+TvyW1Auw9ynSniJuyhd12GPfSI9efIda4dMoOLQ1Ey7KGjpGzfu/6ifsFISd+Q1Jx0P0DM3pF0sd7JTiDMUWrsoSMx/tzpe8v8RklHd75Ruw9yrR5xE/bQuy7DHno327vMfisLvsQV7EgKgY5Eucu08NQz5fYtSe0PwxPoOb5EoBelfm7DGiT/vB08oyniJECsCHSUBZ9zfo36vn2e5N+UtOO7L7T7INeKETch0LsuQ6B34DnJ6nXQg3eZcbEnkkego6z40+f0Vc2a/5bpq5JtR6Dn+hKBXpT6HQ97Wabv6YVBP7cp07IRCwNFQ6CjLPmLp+6gFn1BCi6UfBCB3t1LBHpR6rcdtlCmq7Uic5t9YCaLEKHsEOgoaz5/cj9Z+ClZ+CW5doswMuImBHrXZXp0oM+S7MdaNPBu9shRzgh0VARfdFydMr0+LtcXJY3MYUTETQj0rsv0uEDPyDVNYXCdjfrb3IiDgUQQ6Kg4/vxHRikMzpf5xyX16mSrHApF3D5KfQI94vCyCfQ3JP1WYfYmO+Tvr0ZsCkgUgY6K5fMn7yTLfEry8yUbts2rORSIuH2U+gR6xOGJBnqLXPfJdKsOPPQhs/owYjNAWSDQUfHc6wM99/QkBTpbrtMkDSDQ86zfcwLdZfaEpDsl3cnDYFANCHRUlY3n2ms/JNk5cp2idsu2br1xp5/kMlPElwn0SNtHqR8t0J+T2zSF9lsb9VcWTEFVIdBRtfyZEwYpXXOiXKfIdKykvm036PSTXKpHfJlAj7R9lPpdDw0lNUrhvcrqXhv10PMRJwIqBoGOHsFfm9xbq5qPkQWnSDpJ0vYEepQyFRXo6yTNkPl9Stf80Ub++c2IxYGKRKCjR/L5J42UByfK7GhJh0teF7FCxJcJ9EjbR6nvkuTPSbpfYfCQBjU/Zu+ZuSFiQaDiEejo8XzByf2V9aPkwYdk+pCkETmMivgygR5p+26Fr0rBg3J/SJmWGTZ65rKIBYCqQ6AD2/CFJ+6qTDBJ0hGSHSlp3w626qZIxO2j1O+Zgb5IrlmS/0Pu/7CDH1wUsSGg6hHoQDd8/vE7yWqOVKgjZJog6QDJ010P6vYL3c0a8aWqCvSMTE/KNUtu/1CqdZYdMGNJxAaAHodAByLyOSf1UW8dItlYSeMkGyf58LYbtRsVdZaIL1VsoGdlWij3uZLmSpon+Tw78G9rI04I9HgEOhADf/bkHSU/UCk7UK73y3WApPdKqtm0RdSKEV+qiEBfK2mhXM9INk+p7FyFeprwBuJBoANF4nPOr1Hdm/sr0AGS7y9pb4UaIdPekvp3MzriS2UV6Cskf16m5yRfoFDzFdoCHfTAq2aRGwWQIwIdSIA/e/KOCrL7KEztLfPhcu0us10k302m3eQ+oPPBOX+xqw4ifXmbF5ZKek3Sq5JeldsrMr2ilF5V1l619/9pRcRmAMSAQAfKkD/9ob4KaoZJtqPkg2XBYMkHSzZYoQ+WabCkAXLrL/O0pH6S12jj0/Bqt/r/Fm081L3tDBlJqzf9b72kNZKvltt6SatlvkyhLZX5Mpm9JYVLlPKlWrdsmY2e21qSbwKASP4/1iUUsQCGZP4AAAAASUVORK5CYII=;" parent="1" vertex="1">
          <mxGeometry x="476" y="260" width="25" height="25.05" as="geometry" />
        </mxCell>
        <mxCell id="w4K-Enm0TcKxF_S3Y-CY-15" value="" style="shape=image;verticalLabelPosition=bottom;labelBackgroundColor=default;verticalAlign=top;aspect=fixed;imageAspect=0;image=data:image/png,iVBORw0KGgoAAAANSUhEUgAAAIAAAACACAMAAAD04JH5AAAAolBMVEUAAAAxeMYwd8UwcM8weMUwd8cweccweMQwd78yeMcxecUwd8Uxd8UxecYxeMUwcL9+q9t+qtxXktDm7veYu+PY5fWyzOlxothlmdRYkdBLiM2+1e1yodjZ5vS/1ezL3fHM3fCYu+Ll7vjy9/vY5vRkmtSlw+ayzOpyothKic2lxOZLic2Ls9+/1e3Z5fSlw+c+gMqLs96YvOKxzOr///8xeMYqO335AAAAEHRSTlMA34AQvyBfYCB/z8/Pz78Qi8soFQAAAk5JREFUeF7szsENgDAQBLE5HhCkkFSz/beGKALdZ1yBgX2vtHhOPqPSpgZQaVSbK60OZlot0oz8xYABAwYMGDBgwIABAwYMGDBgwIABAwYMGDDwtm8nO1LDQACGQ8OABNLQ2XpdnJTHA8YGTLr8/q/GcsJTJmkO5br0f26pP1k+VEVy2Pvvxx40/kpDr47jaX8bAP8/Ajh0SmMmNe5LAD6rGSxYbsAOcDbDCwgKURLQAIoCGo2iAKdRFOAAZQGfUBbgUBhAD0APfttYa83WX843A0YSJAAYSfkD0FOIf+XWlzxgOZUAhphvi2m9JT9xa2AEfMEkCFnmGtgAity1bM5yAdoEoONMPABMAmGA/AmgKQ5oMakvDnjCtGtpwIZMoLYs4Ae+DOqigIA02LECqJOm6nIAg9mgDpwACqXpq2UGLM+kV8sNoCMBJfADoseZusALWBZAwwxY3s06fkB0m1kBA4C0hrm7yAxYJnTMgGWCYQHQzAbzARuAXkfAXDUngG5CtCdGAG3SSDIlAdEpAvCsANqEL/paFkAFUBZAJxVdHGAwrTgg6hKAuQm8LQFQ3a0nAEwABBvz7TBpYAL8e/IETLqyAfKEcMS0mhOAqOrEEDzZFiz7V7L+6E+7w+GwP3lFl5UhsgKWq4UB36IsQFthgI+ygCnKAnwUBYCJjIARF9JT4N2O3QRLf8++njd+0JipfTbl3hc023EznNs/EN2eL8/ehPv7ghnAHXAHPMoC3lcrWcDb6qPs0++qqh4EBa8eqt+9+yADeLN6XVU/AZaNDaYVEGRKAAAAAElFTkSuQmCC;" parent="1" vertex="1">
          <mxGeometry x="476" y="340" width="25" height="25" as="geometry" />
        </mxCell>
        <mxCell id="w4K-Enm0TcKxF_S3Y-CY-16" value="" style="shape=image;verticalLabelPosition=bottom;labelBackgroundColor=default;verticalAlign=top;aspect=fixed;imageAspect=0;image=data:image/png,iVBORw0KGgoAAAANSUhEUgAAASwAAAEsCAYAAAB5fY51AAAACXBIWXMAACxKAAAsSgF3enRNAAAQWElEQVR4nO3dT6hV1xXH8fOM8hIxin1BCv4hGIgDU2JpJ9phMonUZibpJHRkKtiRkEJtoROFFpwVUmepkxRnTYqZxNIOqkMNKNiUTvoMiPiHp9bwGhrDunji6zvvnrPOPXvvs9fa38/wGtTne/eX3z1nn7Xmrh9ZeFwBgAHr+CYBsILAAmAGgQXADAILgBkEFgAzCCwAZhBYAMwgsACYQWABMIPAAmAGgQXADAILgBkEFgAzCCwAZhBYAMwgsACYQWABMIPAAmAGgQXADAILgBkEFgAzCCwAZhBYAMwgsACYQWABMIPAAmAGgQXADAILgBkEFgAzCCwAZhBYAMwgsACYQWABMIPAAmAGgQXADAILgBkEFgAzCCwAZhBYAMwgsACYQWABMIPAAmAGgQXADAILgBkEFgAzCCwAZhBYAMwgsACYQWABMGM936p4Nu07WG07fLLasLDT65eosnTpj9Wtcyeqrx4tGfjbImc0rEgkrLYfPVt8WIkt+9+qdh3/sFq3cUvj14A+CKxIpFnhqfkde6tvvfYO/yIYhMCKQJoEzapp62s/bbwG9EFgRfDsjlfcfU0hrHtuc7XlwI/tfyEYDYGFpBZ++C7/4JgZgYWk5KMyLQuzIrCQHC0Ls+Ic1kj+8c4Lbr+23acut950qFvW0sUPGr8GtKFhIbh7F850/pab9/OxEP0RWAhu6dIH1Vdf3G/9bTe+fKDa+PIPGq8DbQgsBCeP4Ny78PvO33bh0M8brwFtCCxEcffCGVoWgiOwEIW2ZW19ndPv0COwEM1dxcX3Ta++UW1Y2NV4HVgLgYVopGXJaJkuC4c4lwUdAgtR3fnot52/vYyfoWVBg8BCVF/e+TctC8EQWIiOloVQCCxEp21ZWw681XgNWInAQhL3Fc8NyoA/xiijDYGFJB599vfq0WcXW/8oGfDHGGW0IbCQzJ2PftP5R9Gy0IbAQjK0LAxFYCEpTcti9AymIbCQlLSsL+8stv6RjFHGNAQWkrvz5+5zWYxRxloILCQno5FpWZgFgYVR0LIwCwILo9C2rE37DjZeR7kILIxGs6yC9fZYicDCaFhWgb4ILIyGZRXoi8DCqFhWgT4ILIyKZRXog8DC6FhWAS0CC6NjWQW0CCxkgTHK0CCwkAWWVUCDwEI2aFnoQmAhGyyrQBcCC1lhWQXaEFjICmOU0YbAQnZYVoFp1k95HZHtOXM7+T+xjHO5de5E9fDK+cav5aRuWfJIzjR1y7qtuFAPP2hYBZH5UtuPnjUxY4plFVgLgVWgbYdPZv9Fs6wCayGwCmTljc4YZaxGYEXwvy+Wsv87Wnijs6wCqxFYESwvXu18o43Nyrx0WhZWIrAi0bzRxmZhXjrLKrASgRWJvNE+f+/trJuWlUme9y/pTr/Dv7nrRxYe83326YVD73Z+XJLzTounf9R4PSdyQPSlU5cnZ6/aLJ5+c3J3EX7RsBzzMi+dZRWoEViOeXqjs6wCFYHl39LF7nEt8kbPfcaUNnw3c8TBNQLLOU+TPDXhy4A/3wisAniZ5MkYZRBYBfD0RmeMctkIrELQsuABgVUI7Rt9q4FJntrwZcCfPwRWQTTz0uVB4tzf6BK+Dz/9uPH6aoxR9ofAKoineen3Puk+4sAYZX8IrMJ4mZfOsooyEViF8fRGZ1lFeQisApXWsrYw+90NAqtA8kZfvnGt9QuXN/rzBmZMaR7XsXDnEzoEVqFUD0V3jKbJgawsY4xyOQisQnmal84Y5XIQWAXz8kZnWUU5CKyC0bJgDYFVuNJaFgP+bCOwCidv9K5Jnlbe6JplFYxRto3AAmOUYQaBBZZVwAwCCyyrgBkEFiZKa1ksq7CJwMKE9o2+9XUL6+1ZVuEVgWWQPJQsW513n7pc7Tlzu3rxV3+rNgV47k/zRt/06huMUcZoCCxjJKx2Hf9wcjZKjhuI+R17q+1Hz1bbDp8c9MWwrAK5I7CMkTlVElBrkakEQ9+ALKtAzggsQ6RdyZyqNkPfgCW2LAb82UFgGSLtSuZUtQnRfjy1LJZV+EJgGbJZOTkzVcuyMBiPZRW+EFhGyMSE+iJ7lxDtx8tKMJZV+EJgGdF3YsLQ9sOyCuSIwDKgT7uqhWg/LKtAbggsA2aZRxWi/bhavMqyChcIrMzJCfa+7aoWov14aVksq/CBwMpc17mrNqFalpeVYIxRto/AyphMRpAJCUOEaD9eVoKxrMI+AitjmvlTXSNhQrQsllUgFwRWpjTtSsLq1rkTjddXC3Ity9GyCi8z7EtEYGVK067ko5qm/YS4Ze+pZTFG2S4CK0NySl1z7UqmhFbK9hPilr2XlsUYZbsIrAxpngWUZ/1kSmiVsP14+TjFsgq7CKzMSLuSZwG7rJ6okKr9lLasYn7nK43XMR4CKzPadiUTFf7vtUQty9OyiiXFA95DzsEhPAIrI7O2q29eT9CyPH2cuvfkGmAbxijnhcDKiObC+Frt6ptfo2X1whhlewisTMg5KU2QdLWbnFqWhZVg09rqSrSsfBBYmdCMP5bJCcuLVxuvr/TgynnVnbzhdwxZCYb0CKwMaJZLVMrJCerNxwMPkpa2rEIe7mbA3/gIrAxo25VMTtBIdY3J07IKxijbQGCNLGS7qqW6k+erZTFG2QICa2STjxod7UrmUWnbVY2W1Q/LKmwgsEamuWOnaUur5dayLIwfpmXlj8AakWa5hJyr0pzIXkuqllXaSjAL01W9IrBGpGlXmnNV06RqWZ4+Tt2/1B2+DPgbD4E1ktjtqqY5LxXiIV8vH6cYo5w3AmskqjuDA9pVTX+NadipdFeLVxmjnC0CawRyzWh+x97WP1iuPQ1tV7VUd/JoWYiNwBqBdvxxKKnOS5W2EozRM+kRWIlpl0vcVYw+6SNVy/K0EqzrDqu0ZMYop0VgJaZtV/X441BStSyWVSAmAiuhsdpVLdm1LJZVIBICK6HNilYx+SgSuF3VaFn9sKwiPwRWItrxx5qxvUOoTqUnalkWLlqzrCIvBFYisy6XCE1zXqqaHGztDtc2Xi5as6wiLwRWAkOXS4SW6rwUyyoQGoGVQC7tqpbqVDrLKhAagRXZZLlERu3q6Z8Xv2V5umjNsoo8EFiRaVrKw08/TtauarSsfmhZeSCwItKOP773SbjHcPpI1bI0F601Rz7GxrKK8RFYEYVeLhFaqpbl5aI1yyrGR2BFEmO5RAyagXVDWxbLKhAKgRVJ7u2qpjmVHmLCAssqEAKBFYlmUWnIETJDpHj2j5aFEAisCLTjjx9eOd94fQypnv0rrWWxrCI8AiuC2MslYkjVsuQIR5ehjwWlwLKKcRBYgaVaLhFaqpalOcLBGGVMQ2AFZrFd1VK0LJZVYAgCK6BN+w6abFe1dNeyWFaB2RBYAalOtUeedzWU5u9Hy3qKZRVpEViBaMcfLyku1o5J/n5dz/5Jaxj67J+2ZeXuwZXzLKtIiMAKZKzlEqFpJyxs3DPsDSgtS3NglTHKWInACmDs5RJWsawCfRFYAXhpV1WPZyAfBDj0yrIK9EVgDSSnsrvaVfXk/8IWaJ+BXF682nh9FqW1LAb8DUNgDaQdf2yhXVXKC90hJ0x4alma1smAv2EIrAFyWy4xlITCGBMmvBwNYIxyfATWALktlxhK89FL8wxdX16OBjBGOT4Ca0Ye29VYp/RZVgEtAmtGWxWnsL21q5jPQJa2rELz84MmAmsGk9VdiovAuQzo65LDM5CeWpbm65hcL2TAX28E1gxS3/qPTXVnMMGECS8tS77vjFGOg8DqycpyCS3tKf0QB0W7+FoJxhjlGAisnqwsl9DK7ZS+l5VgLKuIY+76kYXHHr+wGOT/hi+dutwZWIun3zQRWNKudh7/U+P1laRd/esX30168PXbP/ld5x1YubB98/1jjddzovn3DUmuM946dyKbXQEx0LB6mGz17Qir5RvXzLQrzUerMZ6B9LSsQn4eUpEbJ9uPnp3cRPGKwOpBc+vfyp1B7TmypYvdt+hD83QAc4yfh22HTzZe84LAUrK6XGKa3E/pe2lZmmclQ+v6ObWMwFKyvFxiNQun9D2tBLPyc2EBgaVAuxpHSSvBoENgKeRysDIEeXNrNhLn8Aykp6MBcvcOwxFYHeTWtEwKaDNZLmGkXWnPkeXyDKSXA5hy1ODz996maQ203vTfPgHtwUoLLJ7Sr1tW22n8umXdznwyhoRWqDNSe87cbrxWAhpWC2/LJaye0veyEgzDEVgtPC2XqEYYfxyKl5VgGI7AmsJbu9KMP875lL6XZRUYhsCaQvPYilxot9KurJ/S97KsAsMQWGvQHqzUTBbIgZdzZLQsEFhrKHG5hIVzZLQsEFireFsukcP445C8rATDbAisVby1K82b18pH28rRSjDMhsBaYbJcwlG70t7pXIqwazAWT8sq0B+BtYLmmTSZIGDm2pWzc2Q1L8sq0B+B9YT2sRXNBIEczO98xdU5spVoWeUisJ7wtlxCd+3KXruq0bLKRGA5XN2V8/jjUDytBIMegeVydZevO53TeFkJBj0CS/4vvN/P2nlv58jaeFpWAZ3iA0v72IqVXW9bFXc6PbSrmpdlFdApPrA8LZeYnCNTXLPx0K5qtKyyFB1Y3pZLWBt/HIq2ZeU+Rhndig4sb+3K053OPrQrwSwsq0C7YgPL20PB3u509uVlJRjaFRtY3h4K1tzp9Niuap5WgmG6IgPL20PB2mtxXttVzctKMExXZGB5eyjY07W4IWhZ/hUXWB6XS3i6FjeUpmVpPj4jT8UFFu3KN81KMMYo21VUYMlp5652VT2ZBGCBtEXaVRPLKvwqKrC0DwWbaVeKtnjf0DTRUFhW4VcxgeXtoWBv1+JCo2X5VExguVvd5XT8cSi0LJ+KCCxv7crz+OOQNC2LO4a2FBFY3kauaE7pW1qjH4tmJRhjlG1xH1jakSveBvRZeqwoFpZV+OM+sLQPBS8vXm28nqNSxh+HwrIKX1wHVqnLJTwN6BuKluWL68Dyt7qrrPHHoWhbltzMQN7We/3+aNuV/KDuOXO78bpVVq7FpSQtSy7Ad7XTF3/518ZryIvbhvX8voOd7cobS9fiUuNjsg9uA6vEU8yeB/QNpV1Wgby5DCz5ONj1ULA3nscfh0LLsq/4NV9e0K660bLscxlYcpG16zkyT0oYfxxKCS3L88++24Z169yJxmte3Xz/WDFf61DSsrw/BeD5Z/+ZY9/b+OvGqw789+Y/q+UbV6vndn+/esbp0gH5P+nNP/ys+s+1vzR+DdPJv9fcXFU9u/M71dyG+an/nTX1z8PDK+fdfvfnrh9ZeNx4FQAyxEV3AGYQWADMILAAmEFgATCDwAJgBoEFwAwCC4AZBBYAMwgsAGYQWADMILAAmEFgATCDwAJgBoEFwAwCC4AZBBYAMwgsAGYQWADMILAAmEFgATCDwAJgBoEFwAwCC4AZBBYAMwgsAGYQWADMILAAmEFgATCDwAJgBoEFwAwCC4AZBBYAMwgsAGYQWADMILAAmEFgATCDwAJgBoEFwAwCC4AZBBYAMwgsAGYQWADMILAAmEFgATCDwAJgBoEFwAwCC4AZBBYAMwgsADZUVfU12BzcRBOZlawAAAAASUVORK5CYII=;" parent="1" vertex="1">
          <mxGeometry x="509" y="340" width="25" height="25" as="geometry" />
        </mxCell>
        <mxCell id="w4K-Enm0TcKxF_S3Y-CY-17" value="" style="shape=image;verticalLabelPosition=bottom;labelBackgroundColor=default;verticalAlign=top;aspect=fixed;imageAspect=0;image=data:image/png,iVBORw0KGgoAAAANSUhEUgAAAGQAAABrCAYAAACBtCeBAAAAAXNSR0IArs4c6QAAHt1JREFUeF7tXQl0FFXW/qo7nT1AAmGVfV8FlBlHQWX8QUURUMFBEBRREAU1LihBxBFERGUUGQXBBUWZsIzsRAaQNS7sEJakCUvCHrLv3V31n1dVr+pVdVV3dRNCOMfyeBK6q+q9d797v7u9qnD486hWEuCq1Wz+nAz+BKSaKcGfgPwJSOVIQBAEbuXsrE6l7qL+Ai88bIPN7vF4Vtpt4WttLVvsHTKE81TOSFV7lxvSQpZ/eKJHcT5WQUB9Ii6yCEGgghMg8MhzRGLo0MktkzmOU76pWtEGN9oNBcjKhWcaFmaVLxPctr/xggQENOIWFGBEkMCnx9QOGfzwKy0OBCeeqr/qhgBky9cnw8+ecU8T3PYEAQJHQNBaBbEQFRn2OwECbA7P4ri2EeMfHNY0t+pFHNiI1RoQ4ieSZp4cVl4sLOCAMCJzTlJ9LUWxViL/Tn6IyMl0xvNwh4Xj9Ya9s+b07t3bHZiYqu7sagvIqk9P3paf7flJELh6dJIiIHp/IQOgtwr235rvBKEwNEb4x+OT26yvjv6l2gGy7qv0+CunsUTgbX9nHbaeooiZUJayCgYvCCKg5H+PzXOwTl3+kQEJHZ1Vp//+R6o2gKQmpYbuPxr+vsfFTQAn2M00nAVC4iN1kcRfaJw8Q18KevIpFBjB7lkc15p7bsDT7Qr9i+van3HdARGmCrbl0SeeKM7jvuQ4OKhVUO63QlGSmEwsRjYjxucrVkI/I4GyPVSY1CS07Ue9p3LX1b9cV0DWfH6kU+750PUQbDeJ2q3PKXyFtIr2SzRkSF8MCuz3GquigEmg5kXW4If/Y0r7ddfLv1wXQFZ8drR2SXboUsHD3S3Supy7UcEGEtKywtU5b4VfFDBMAKbWKJ1HJiTsC6lXPHDkG7eeufYkpR2hSgFZt04IK9h3YparzPYcgBBRAJy5hpvRkExQxv6C5SbGX5glkBQM6SfrdADOzifVqWsbPWBi1fmXKgGE5BPLZx8fXJrnWMiBiybr1lMUG9r69AmiBl89RRkCIQcJZG4csRMRIMETFs2/2vj/On7Wu/e19y/XHJCkT9M7lGXbN0BAY0XoOn9RGSEtm6lTRbdpchZtNq8Yg86iKIHQ+ylzE4QroTUqBo6c3nXHtaSxawZI8ucX6l6+VLRM8Nh66fMENlw1i6KuNqQNiKL04bMRSIpVC6m16tr7D3mr3clrAUylA0LyiUNOx7uu0pBXBcBGSx2U963kF5YtxkoUxeQm/qzC0I/IvkX29zIGnCA4Kn6MbRUyZsjzHYsqE5hKA4T4iSXvnxjoLrV9CaA2G8KKGbLKV9RFMOsIPOtmKYVUful4RiGtL39hSlHyF3pHT0ET/YzAuezhrvFZNW7+cupUjq8MYCoFkLVzMjvnXClPBm9rwAKhRENMfhFsSOtL0OIiZFAIODZOBThoMChF6bopRgBBEPIiosMGjpjVeuvVgnJVgGxIyoy7cqxsPu+2PyzLXBMBSdGKcUTkqwRinnVryZ4WG1mwaL2KBcKIivSWQe9B52tUhqGRoTKerrAp2NyHYxo6Hhw2ucPpYIEJCpDd83Y70i7HTuYruDcEIFQqdataer2zblXY2sjKyMr0CkMA1QcUkhvSfc6Aob+Gt7kX1mldMn5Iwu2lgQITECDETyz7+OSjpYXCFzaBizOrtrK0ZdlB6xZslHXzvNwPARBdGwiJcSMm1gG7nYPoRwQBBTkVcBeEoDAbEKhz0RqWkgBq5hYQRVEHIwNl0I/hBb7CFsa9OqZOp7lcAP7FMiBrvkxrn3fOtkzgbR1MyxWVTlHSSsOiOTTvEYq2nRsguq4dIQ6StvmfutvFoyibh/PQBaSllKAkl/G7eroxqBSbWQW1IPPqMlt15vOja9sGDp/RaauV+pjfVZH26blMfinPcw+QKoe+aspUTC35C31OYuZj7A6gS98otL21PsIi/E7TmxkUHlW/qqjgkb7nMvauykd5iQSOsZP2TVFKpUFnGSyAclWIUp0Ajt9Zp71jwJCEjjm+aMznSjcmnah5IRXHONjqmzlhf/6C1SJfYFCti6jBodfQeqjfLFoNlQMlYgvnXzlXhv99lYn8i26NrZkBRGlY9Be6yEvxMUYAsf0aQSiMqFvRddT7PTLMpmgKSFKSYC8/knEcAtfSTIv1Ju0rpPXXSCIW0fvJumjUooYcIcjhGU1glIa67HNpf92C8H2dcjmrBOvnnkF5IVmNsUMPjKLknj9DgYReeXGbDAnHhcK6nWvXG5LQ2NDhmwKyZGbGC+4SzKlMimLDF/W+Alr+JQp3DGgIjhSfqupgACa//pF8HvtWEzaRvZMfbfcVeRmHzJKCFRaUY+vWw7vXZ4/qYbRUQ0BE60jNyIHA1aAXaeLzIBtJVNOUcoqdR79xN6FOw0g5Zg7CV1wlgGoLgENRngvLpqWjokS6KZmNzzDYhw9RpiVHby6XgG2bj+L82XzREm/t07DRZxsHnNNP31ACq7840jrvXHganRTruNnPAsm69bQXXhN4+JUWCHFUpVn4QE+2GEIt//3QiSsnXRKFBekv2MrBgX2nkXrgLKQtZQLIiuu24f/537Rxb1sCZOWck68XXBZm6p0w1XA9UP42HpCGoLIuAYhrHIIHxzW7pk77Kg0HGxeeQcYf0r4HYtGCHDFrQGLayEabK7Iyc7BjSzpcbnKxdLIoUwgIDbMd2Vo+pqMlQH6afSaxKNc9rbJCWkkrSMMHqN00BA+Mrd5gUCFt/u4M0ncWSmDQLcIUBLb8q6OugvwK/C/5IIqLXBLtyfkZBUP+6UzBuNaWASnMcU8z6uqxTt7K3ijKieS6mHgOgxJaVmvL0Ato3b9P4syBYq92MREy0TAlQRUAjxvYuiUVZzMLGBciUZRGlhJAzl2WAfnoTGJBnmuaub/QVlO9qM2glGAPFTD07VZimeNGO76ffBRFl+SnG4xKLAJwcH8mDu07qwQBtLAqrVYVCP0cgQJSmOdSKEvrvI17F5KQzfZG8Rg8qTmiaorbrm64g5RgFrxwGODl3cKMwp09U4DtW47C7VbzGBYMpeLN+BBZUs4UPG+RsoiF5EoWYtYKtVICodtqbn2oFjrdEX/dgDCoogQ8l6z0AqyeqVbViwpd2JR8EIX5cjQm35FGUbLQFSeuULcKjHOXVUBWfEScumuaWVPIF0VpvhMERMZxGDKxVcACqI4XrP7UidP7SrDzlzScOSU92UB9A/1J/QULgAEY5DpnCl6wZiErPjqVWJTjkSyEoSG9xZjWqWTPT+pCg99sjujYyqeq8jI3sjIKkJPOI/diGTwCj9j4cMS2CMFNLaMQGR1WqcEDWdKaRcfw/lPbxHxCDwb5RBdFiefowWDCX+euwAHROm+11GNtb1TD9qHo+2TTSlN2wuW7ky/j6I5LcJeEUH1R7y87XCI8W6gLbXrE47ZB9RAWYVcEaKVsr59weuplvHL/amRnkkKklNzRw8xfmFiFApJkIeMtWsisU4mFuW7ZQrTPZPgqKLIbDzyCgGFTWyEs8uozcSLg39ecx6FNOQBvNywCmpfReTTtHoO+TzWBjUR4uiKlXviSgCVxFuVXYOLADdj3y0V5i6k3GCYhrcaCqOXoNChIQDSlAzOLURvnJH8ieVSdpnb0H9dcbfEFaSdlxW4sfc+JiiKAdAz1W08Ni3xMMELm4wEPu0PAoDdboE6DKFNQqLLxbmDOxJ1Y+q9UCDxJaRXyZixNS1GsE2fpzHC/q3QXZwomWLcQNlPX+xK941bMV37UzMYBA15uitgGofKlwdXK8y6VYdmMDHC8zXeRjwFAu1lBFrGsVCSZ6zuuIVp2iTNVj80rj2H6sG0oK5Z0Xy9cGrEF6C80NCffNzBASKbOom7YPzfbqGYTMHJGm6tyqsUFLvz4dhp4j6yhFot8qnIYFwZ58Oj/WlPc1EopZIuXnEnPx4t9VuPS6TLFHrRgSBFV4BRloC2Ss3fuCsRClNKJgSDEIYzAkM9t1iMUdw8J3pkTalo0KRWuEuKMvQXrq6tn1r1ThEtux/EYNbsjwiLtKC7wYNLQ1di97jIAG3mUGrXqhMNm4+Dx8Mi/UiYCER4Zgqhoh/h73iWpt8Rk3V6lEZ2/0CV0op1Zt5BlM08lFptk6iwQVFYixzLAPfRSU8Q1kukqCN/xv28ycWpvsXf52892HCu9bjqdmPgQFEdcxvdvH4Obp25cWsT6nBGoERuG3zdm4cW+a0Uf8vq8nhj4bEe4Kjy4K2y+eJ6PkNaIopSwWJpDQIBkJBblSnmIkb8QK5gyAPod5qShM3Jm66BrVqVFLiye5JTwtdC101CUhWsEgcPR1LPY+1umuE1IjapUf7HdNRr2EBt+nH0AnyX8Kp7z+Y4BuPmOBsi5VIL+9b7V+RZ1YJOISkODqg95yZpTXzZTBUTJPQwoymi7vyMCGP5umyDsQrpkw7xTOHO41PLGA0OKkuXDJq5E3JcvFGNz8hFRyxUg5dK4QmkcsIt/Vvz63Sc3Y/23Yp8OP2UNR91G0Ti25xKevnV5EBRFSUzK4UhxMQWBACJn6vqGjFIXMgmH67Ti0H+sF/CWACIau+Clo0om7CukpZbr1dVjkkPaiygvFrAp+RByZX9gVNao1zQKHf9aV8xV3vnhHnG+89/6HZlp+eLvUxb9HY4wOw6lnEfSvw6hvNSNHaulJxK0VmFgpop9KGDIYe/LFi1kRkZiUZ5nmqHj1o2n0UIB6HpvTXTvW88SAPqTLp0pwcpZUgGPFialfygrUgUgaENaeh6buHo8wG87nDiRlk2fiWKG1Ia09z3RGlMW9bY870tnizDwpm91YKhaagYSW35PQQCA0Ezdl78wAuyuYfXRsrs2pLS6yl0rLiB1S67p5jWFZvzsjSJiOX7kEnannBSTSbXyRLNwfX4B9B3WCpO/vlsM1Yn/IAcp1dCD9v49bl5UFgLIo80XeQGsfqCO4W2R4nfOFCRYtxAKiFhp0FuhruCotHoFAf3GNkGDNhFWMdCct3J2Oi6ecEmfGTS5zPwFGwZnXyrB5uRUlJVJwqTvO5FuqVKGvh5F84u/D2mBaf/pK17b0/a5KPywKDs2F0l+5bF23yPzOKExowlqJ86O52XmgQCSNCMjsVhs4foGg23nUqEMerkF4hoHV939ZvJ+VOSFmlCUXOpm5CApiwCPAFSUebB5QyqyL0s5ArUKvcZSYFiA2Kz7mek98OSkW8B7BPQK+UIEsUHzGCzPeEK8VZ+a81FcUOFlGRYoSt9csm4hSdOJD3FP01uGEUXp85JBCc0R1zi4HOTrxP1wEUAYRZMoU0bBJAw+uD8de/44gRDEKsUOShPszcysggJIvv9g9f3o+WAzFBWUo2/NhSKwt/RphE9/HiBZTchcESzWQlgw9FborRgUS1LLesUaZRFAivPcTIPK+hNJD01ojvjmwQGSNOMo8rKYzNykf021++L5bCRv2IEKl0es0JLF27masAlRMqbGFEWEyVoFiay+3vOoeE2TtrUQGm6H283jVCppQgmIiQ1HvSbR4vfOA9niz1E9/iP7GO9SvJYetaUOrVMPBBCl/O4HDB2F9BnVCE27SJMP9PjluyykpRQoySipO3FyM0i5lwAUl5Qiee125OSSfVPeBUDAjlCuNjhBUgzVMqRz9YVBsvFiu3tsQNO9K2yuaT5j4C+MFMT5K14NwELIviymjsQ6blY46iok4P46sA46313Hb9/BaPWnDhRh47wzYpRllKm7eR5bN/+OkxlnNQtkqUgSvyR4G+eAQyC9fLVySzsaLM0QQGb8dJ8IXc8HSMsAOHUsB1lOKQfpdmcjRNUIFXOPPzZliue9OWgdSMQlHfqISmsV7DmM9ThTLAPyLvEh8iYHtdWhKSia9dsbd3Hg3lEtA9I2ejLJoBdOOKZk6eKOQZGuORw4eAy7fzvMvGVJpR29UFjKIOCEcNFwCLWUKbMWwloQGW8nP0683VtDN2DTEulVWivPPon4htFiUjj29mWaPrpJSMvorDdtyuM7f8VrFi2EAcSfZejfeBAZZ8PjbwdXOiHC++HtIyi8qHbtLp3PQfKG7SivkJ7jUHVRSz+sYClPU0uRQl8ODi4WNoFs7DYuDDrCbNhaRl7DAozsvgTp+4i/EPBL6XMIDQ/B6q9SMePpTV70Y5Gi9MXIwAAppNuA2JxDZ4leL2uRy/JPf9IOnPJgemDGcj6jCKs+OI2S4nJsWLsNObnaXYAs1eijGyN/otdg0tEIR10Cj5dviasXgTUXRokT7ld3AfLkEHon/4K4ntkvbcXST8gLTk2SJGapxtGW6s9IPyQlEAshgOhDWjqe13tAdFv3H3+nDaJipY0FwRwJ9y3BjmQnRKcu30Cv9XrhG31vdi05NyoyHPUa3ITzJ8oVi2nVrTbmbBok/vvB+gvgruDFqvXay6PFz958ZC32bcnSWYi5v1AtlA0saLJKyu+WKcuZWCB3DOXRVU6UOYwW9+j3tIxNwLqlfyy69xXfcRzUceViMe5vOEvsZ0uH1mnShbI/tZZjFHnRTJ0QGI+F255D917N8PPSNEx/ah1cxUSBVFJkx5VmoPUFRvmFUSXAaF7yvZ0pmGjNhyx5xykmhhrLZLuEslJQUGg0RnrWpOEaFsNhxHvtggKDXrQx6TAmPbZcLn7QMoiqafpQVusvvENd1oKGJ/TEKx/1V+ZHEr25b+zCjx//Ie5q0VKSFowg/YWmhCPfI0BAmG1AJLShZRS2t26WQZPPR8xsi4jo4GmLjPftzG2Y88YmOeXTu3PvKMsXRVGN7/NYB3ywZKSXspB1kez8zcErsHcjaeeqlqm1EEshrUJr5Be2nsaAHRwgRv7Cb5EPQOs7ItF7aLOrshJy8frvD2LKiGXg5aeP9EkdFZze2YuPC+jq9k+9cScmvPeAGmKZzC7t0BUkPPAjcjKlRpZKRaZZt0nDyhQMeZNDIJQlPrDDhJbMS4zZhJH1IRql4gSM/qSDtDntKo+LWYV4sucnuHi63KuPrby9Wid8ltKiatowf+MEdOghvhvH56H6QiB5cRqmj14DT7maWNKLA/QXypiMFTtT8IZFHzLFmViYr939rvcXygg+Nh50G1gTPfo2knAKbmuWRnjbV6fjvef/g4uZbEVX1WC9k4+OC8HEjx9BvxFdgw7DSU3rX6/8jP/OOQLSj5cOEv1JqiCNKb8SUFYKE4ryykMCAqQoX30+RBKod8XV33Ycsstw1CcdxFdhVNZBppGbXYotK/bhpx924PyxMhTnlYuRU0RMGOJbhuHeh7uj39A7UL9JlKVXcFiZW+7lciQM+g7Hd0p5ke+QVrUj+hvr32SadabgTasWkpZYmCfvfjepuCqUoMuRqCURx75z6z407GzHzKShVtZc7c/5alYyPnt9MyK4eNGn+QhpjSiKWZ8oNOuA/DA5LbGkgPTUZU3QCd0LDF0YfPToaaRs3yu9vQACvt03Cu27StR1VUdl8F6AE6A+JT+nBL3iX4MgP0UVztUS62Pe+YgqLAOrYEcPDJCifHn3uxEYBpUDMnh2dj7Wr9mO8lL1qSKyoIhoDptzEiuVugKUa1CnUzCIa+jXegoyT0jvjSGfk/9ssCGSi4ddro+x+YsvMOSAwJmCSdYoi1iImBiyRmbStSOnlJe7sGHtDmRfzFNyapZnyUQ73VYPX6eMkemzEjx8UCIO7qJ3Ri/BsoXS22EpGCpdcbAhBNGoDw7SMysslckLVgZmorMAAJmUllhUoFqImb8g0t+1/QCOpWaIjyCwGsKGnVJSKeDhF7rizTlSK/RGOZYvSMHUZxZ7FSI1yiqroQORiATpv6j2oT+PDXt/RaJFC6GA+AhpnWmZ2LFlD9zKW9tUHjMqa1CteenjezD85V7MFs7qC82O5KN47r7PmAqSujKqfN7WAERwsQgVarL8olmkfBenZUAWJx6fVJTnni6+4VMLMXJzCrFh1Q6UlJJQk4JgXPxjzZWtNU346B48kXBn9UUCwLY1R/B8/7kaMOiE9es2piWbaC2hiNI0tOg9OPGBncnWLGTxtCN3Fp0XtrLFRVe5R/QTly7k+uyYmRf9tIXBQWO7YPLn0saC6nYsmr0JHyRIhU1jpdKW031RtZ34F64BbILUf6F3rNM46ofVmS8N06/dMGNb92l6WOaximKyiUN8vm/nQaQe1PoJfemANV22sqp3cixgbW+tjW92jEdomPTcYDAPZFYmmCRMf3nI59i0PNWLbswSQe+mmHepntyMWAqxGBICkKP9X2p3/er3sV5/zs80hZ7/4uGvTxw59+S2zXvEB1domcCsuMeas5ZXtb0JPVhhEcC8zePQ5baGlSnbgO91Oi0Hj98+DflXpIaVKmj1d31Z3ioY7P3CEYdIR0zuzooptY1eimkKyOv/+LHhL0sySHtMPEcK99TqpS8eNaMtPRhSDUi6++39m2LmkqcQGUn3dNGCf8Cy9XsBa41ulwfTx/+IZfNSTP2FvzCWyoeyAftvSm5sXtK2fd27Vh2duc1ooj6LTMM6z30m/VDufNY66GDBUJR24t5dPY48m/janRjzTh+EhQW3HdUvGvIJxOoXzdqKT6csB3nbG6vFegGzsZWRv/BHZ+z9ateOnLPrytwJZvP0W/V7vPPcYc7DOYsE8XlH77DPW+tZe/KuxKpWwdKCNkrjbDzuG9oZz894EPUb1xQz4so6rlwuwBdvbcDShVvhcUu7tFjL12o3S1fe82WV09d1soyE+PqR726/MNfrLXLs2vwCQk6e9WpyVPLiX7/NP49H9C0avXmy/zanKLVsTSfjTYGSqKLiBAweeQ/6j70ZzVo0gD2Ekpy1IIC0Z7POXMLaLw/jh29WI++8+kfYjGjXTMH082StwkgG7GdRMdwfvf7yt/6fbHqGvIHA52EJEHqHp//2Xau0wxkbygrRkmoW1Xg6QfOw15uizBaid5ZUSJzdg5p1HejcrSU6dWuLpt1qoXb9CKYJJiD7Ygmy9hfj0N6jOLg3DVculIqWQA6zZtbVUJQvMBwOLqdN+xYPrDg4+Vd/QNDvAwKEXtSvyXsPXj5XtoR3c1HUl7Adb21hzXu3BguemcM0P0dfETDaUK2eQ1+v5x0ReVcW/M3FCnBk3jYOrvqNw1/YfPrfX1p5vXjAlGWE7tSpgm3399PeunCi/C1e4OTdDAaOWr5YTwVGFKWnO+lSreBUBZAe4veloea+wbzMYzQmS1e+qrikjVcrPmxRj1sfGjNnfT8aP1s1DtmKAzrd++TXH1oZs2fn/qW5VyrulUhBWqyVXrd6N9+5Cisks/uz2i1lTUZzMAdYPxcj5fAFRlSk48DN3Tr1+2rneK938QYi4qAoy2iAMX2+aH1wR+bPZaVoRtqp4ltIg6h1+XKq/sFmW6vGPssq7bBWIYGrLf1QwYU4kN2yY/yAlftn7gpE8GbnVhogdIBHurzT//SRkh/cblu0+nY1Dh54TEHyRTusILytTtV4NXzVfmZOQdp4MdCsm7PxFQ2axEzcdOrTT5Q/VVoJiFQ6IGROSYOT7AtSjryffbY0gVeo3rvNGIhz9xUh6SnKKsBmYPkOaQWhRs3opf26dR859Zen6JtqKgEK6RbXBBA6u9cfWhiTsvXksqL8ir6sG9Xzs7/oJhAwjHILOp6/cfR0pgc2MjLkcIdb6vT9fvt75ysNAd2NrikgdKxn+37Ybv/28+sqSm3NjZwlSxdGFGWk8WoedHX5hWql0iiqQFRoQ0L5nDadGz+6Ys8/t1wrIOh9qwQQOlj/dtOGZjqvLBTc9ghpucYhrWS65k756ijK28foKUp5NTjHuxs1qvNWz9FRH0ydOrVS/k6hP0CrFBAymcGDk+wXN+2fmZ9bliC+qVs8tMIPBAxVj9X7+KMoIytlQ1rye0xsSNJfb+s4Ys76CUHlE/4Eb/Z9lQNCJzLx2Xk1ty87vrwoR7iHLVqa5y/XPqQlDbKwSE9qt54t7//658nk6c4qP64bIHSlo3v9u8u+3cfXuEq5xmrXxVvb1e6I//zCXyOJtSrqs0JCkN+yVZPHVh57O7nKUWAGvO6A0Lk81Oqfw0+fzF7AexDGCvRaZ93gBE+9RjUTf8n66AP1b1JcP0iqDSBEBElJSfY543fOyrvIvyhAsFGXf22qtIIQHc/91O22HsPnrx4j/5Gj6wfEdYmyrC735XsXxO367dCq4jzPHZVZpSXaR/yEI4LLaNO+3b1L9yZID6JXo6NaWYheLo93nd31aOrJDRUut/xGNPMwmY3WzKIoRwiKGzaJHbIhY9a6aoSBZirVGhA603vbJIw45yyZx/NceDAhrZ0TPPHNIqfePbL2e1WVTwQL+A0BCFncvGd3OxavXvTZlQvlz0DgyJ9oZNasj7zUFnGN2NDkuzvcN/iDnQOkv/BVzY8bBhAqx6G3fFjnRNrpdUWFFT3U9jG72UYCJzycO9m4ZcO+q1KnVjs/4UsnbjhA6GIGdHulw/l017zS0ooeHg/vEC2GE4TIUPuhuOa2lzYe+3xrNTcGw+ndsIDciMK2Muc/AbEipSo8509AqlDYVob6f5A/mJij2p9aAAAAAElFTkSuQmCC;" parent="1" vertex="1">
          <mxGeometry x="476" y="420" width="25" height="26.75" as="geometry" />
        </mxCell>
        <mxCell id="w4K-Enm0TcKxF_S3Y-CY-18" value="&lt;font style=&quot;font-size: 17px;&quot;&gt;&lt;b style=&quot;&quot;&gt;&lt;font color=&quot;#9ac7bf&quot;&gt;Front-end&lt;/font&gt;&lt;br&gt;&lt;/b&gt;&lt;/font&gt;" style="rounded=0;whiteSpace=wrap;html=1;fillStyle=auto;strokeWidth=2;strokeColor=#9AC7BF;fillColor=none;spacingTop=0;spacingBottom=94;spacingRight=170;spacingLeft=0;" parent="1" vertex="1">
          <mxGeometry x="50" y="224" width="270" height="126" as="geometry" />
        </mxCell>
        <mxCell id="w4K-Enm0TcKxF_S3Y-CY-19" value="&lt;b style=&quot;&quot;&gt;&lt;font color=&quot;#9ac7bf&quot;&gt;HTTP Server&lt;/font&gt;&lt;/b&gt;" style="rounded=0;whiteSpace=wrap;html=1;fillStyle=auto;strokeWidth=1;strokeColor=#9AC7BF;fillColor=none;" parent="1" vertex="1">
          <mxGeometry x="60" y="254" width="210" height="70" as="geometry" />
        </mxCell>
        <mxCell id="w4K-Enm0TcKxF_S3Y-CY-30" style="edgeStyle=orthogonalEdgeStyle;rounded=1;orthogonalLoop=1;jettySize=auto;html=1;exitX=1;exitY=0.5;exitDx=0;exitDy=0;entryX=0.5;entryY=0;entryDx=0;entryDy=0;strokeColor=#9AC7BF;strokeWidth=2;fontSize=40;fontColor=#A680B8;endArrow=classic;endFill=1;" parent="1" source="w4K-Enm0TcKxF_S3Y-CY-19" target="w4K-Enm0TcKxF_S3Y-CY-25" edge="1">
          <mxGeometry relative="1" as="geometry">
            <Array as="points">
              <mxPoint x="360" y="289" />
            </Array>
          </mxGeometry>
        </mxCell>
        <mxCell id="w4K-Enm0TcKxF_S3Y-CY-33" value="2" style="edgeLabel;html=1;align=center;verticalAlign=middle;resizable=0;points=[];fontSize=40;fontColor=#9AC7BF;rotation=0;fontStyle=1" parent="w4K-Enm0TcKxF_S3Y-CY-30" vertex="1" connectable="0">
          <mxGeometry relative="1" as="geometry">
            <mxPoint as="offset" />
          </mxGeometry>
        </mxCell>
        <mxCell id="w4K-Enm0TcKxF_S3Y-CY-25" value="" style="shape=image;verticalLabelPosition=bottom;labelBackgroundColor=default;verticalAlign=top;aspect=fixed;imageAspect=0;image=data:image/png,iVBORw0KGgoAAAANSUhEUgAAAGQAAABYCAYAAAADWlKCAAAAAXNSR0IArs4c6QAAFTNJREFUeF7tXXmYXFWV/5333q3qLZ0EwpIFk5DUq+4QCEsGh0iE4OiAgoJ+QTEk6epA+HBDRaOOwxhB8VMRFxSdmNSrJIgLjsug4AKCCMgMEQkxS79qyUISiDEJaTrpdL3lzHdev2qrq6u7qkJ3VzFf3+/rf+rdd9+553fPvfesTRhtVcUBqipqRonBKCBVtghGARkFpMo4UGXkjErIKCBVxoEqI2dUQkYBqTIOVBk51SMhzLT8RdQe8sCYgsx9RN5Q8GrhC1w7/ugr9ZP2jnl55QJyh2LM4RyjKgBpSTufIMbnAejhZBnMu0ij5cmZxm9BxOUwYfFfu15nuPqXQfQOANHsu0Sw/YxxUeoMeqmc8Uayb8UBSdjObwC8mYGvacwp32cfmjZO0/AFZrwBQCf5vCDZFNlQjDEt27mGHPdBABcDeAXArQx+CB570PTTiPgHABrY9eKpWTXpYuNV4nlFAWnd1n01a9oPGbQoZRr35jMgkeaTAPdhMM4E8FBnzLh0oK2sta37KibtxwAcIro6GTP+O3+85RtYOY1uh4BlmerkSjC82DcrCkjCdg4BeNEy1azBCG1tcy9j4l8AOKLYOH1VnP7e25+ZEmn35wCuAGHD1N3GBYOdFUu3Zs7TdNrAnjs91Vy7oxiDRvp5xQAJV2sGhEutmPp1sYkv28wn+Mr9K4BG8r1ZyaaatpWPsLFzsrsdwBQC35g0I98pNo48T9jOEWZek4pHPlRK/5HsUzFAEu1HT4OvdtU6xpi7z6DOUia9kFlvaHefAuM871jXF42a2hsYGMeES1Ix9WgpY4SAbAFIWaYRK/WdkepXMUCWbDl6lW6on6gOo37VXDpazoQTbZkdIJoq75CPS5JN6pFy3m+1M99n4A2WGXldOe+NRN+KAbJ005EbtWjk7uMCxHY2AwjOHc/356xrij5XDrNa7Mw9BLxxFJAcri35S+dSPRJNlQtIws7cC9A1IDwIxhsBRFgZjanpdKxUUBJ25nsA5o8CksOxpeljMzTW28sBJNHmLgVxish/dzIW/dEH0xztZPdvALqsmDGxVAWyNe08zsynWWYk2PaqqVVsy1q88ZWTjdqafayM8anp9HIxpixpOzpZJ7UbwC2WqT6X7b/8rzzW8dyDAH5lmeptxcYJD/UDDGxImepfS+k/kn0qBkhwY0q7DgiXFbv2LvwR6w1nu6J5b7dMdUY+g5Zs6z5L17SNBE4kzUiqGAPl2gvX/ao1q/bfi/Ud6ecVAyRcqV1EtD4ZM5YPNvGE7fwBwIWem3n/6c1131kJ9LFtLQS0hnQAWI3Hxmnr4rRnoPGy+o/v8dy1zZE/jTTDi32v0oD8BcwNVjwyLSCUmVq24BTo3nwQn0sa5oAxD8DYnIn4BSYl88jOhQF6noHfauC9DP6N5qj0mjNItjW0bsssY41Wqw4jsmouOcUYNNLPKweIML+teydp+mkAxNA3PvwTi6+YyYVZtcKQwEoL72NgfcCblEYCCM9ipq/mMLE7x9oruo6cVRNlSO/o4Snrzp4woCSNNBDZ7404IMvaj81kX7+dgSsBqN6JE39UI//+ju7orvtmwZEbU8J2BIDuqTFj/EqiQpLRj28taXcxMa9j9lem4tHPBlvUWIwjducwIJeB12dfYtB2jfDJ53frP3m0SnwlIwOIGADbvbeDWQ7ccQQcYuBOYvdRJkO07H2WqabkcjexzbkEGh52dXfq+hm1u8pZsQnb2U3AgaSp5uS+t3gj1xu1rpjzb/QN2kE+PpMD0P3kG9cmm0jOooq1YQekdZuzgDX8Mth+GE9C86+3YtEt2Rm3pjPLmOlblqlqsr+tZNZ2pt3DRPhGMqY+XS53FrfzyYbv7iP235mMR3+afT9hOyvCa/OY7G+iyxxhdwUD8p0ogX/wuphaVKpElktbsf7DB0ggFe4vwbgMhE3KNy7pYzYPKVu+l+ucTvcI+ZnJyab6vfJzi+1aBL526h6j9njdri228yUCPtwZM2qzPpSE7exnwjdTMfXZfoyRM812byfCJwLnVrcz2zqz7oViDBzq58MDSI+PQraZKQDfZJmRbwxGeMAo4BlR1JZv4Dqn0e0E0dVWzBCHU5/Wsp3HkevdBuZrAezVQCvWmIZIYJ928SNsTJ/syhn0BctUt1z3PJ/iue5LxSwDy9t4gkPuVgAnEvM5yXhk41AzfbDxhgWQFtv5MQHvBPmzc7engQhpbXOvYuIfd9YaDQ1dgQt2rmWqhn5gtGUWE9G6AuP8wTKV2LX6tFY708KgNcc6uk6paawVD+JUy1STizE43DJ3yo1MdRiN5Vqji40/ooC89zkeH61xDzLxslQskiyFuJABcs0N9AlmvDEVV6IM9raFmznSoIIVX3AREbAiaaov538v0MqBOvmdmd6WihsPlEJT+D3x0zxhmWpBKe8MRZ8hl5CE7QhTPmLFDFWqsU8mkrDdJMAJAActU53Yb7Wn3bczs7hqB2rHLFMFektuS9juNQCLvz5jxYya8mhyPgbgi1bMMMp579UAM+SA9FhScb5lqkg5hCU2vzILqmYzmO+x4pHF/RjbllkPIjk3BmpOoW/2uooHAHowGpdv4YmO4e5VHfvrV82dVJYTrZy55/YdckB6nD/0bstU/1D6SqCuNe2uYubrRUdJmuqE/Fda0plWYlpTroS0butexJp2jyiYuVfrEkhCq+18nIHPWzEj+pqVkOvSPMVj94Vy9mvZ3BNpNwPAEEYRY34yrh7PZVrv7WuAMwTCOFP1td72jCvnQHCGaMyvXxOP/G8pYITWaJGKRyxTXVrKO0PRZ8glpOc8cGTSc0u9ZbXYzpsJ+BW6O6Yh2rhe3LOF4qZa2zJLmGhtgYn/xTKVxG71aaFUrdKcoyf7Rl0SRGdapjGjFMa12M7/EDC31jHGlhqEUcq4xfoMCyBheI6Ea55ARFcWClrre/A6YuTbJCvxfZu5oUu5HSAssGLq9/kTWLala6pvGPcBOEvitJj5llQ8cnd+v6wewoTbRBEM9Yv9xaJcAs0d7nPMMBl4S8pUvy3GxKF8PiyACIE5ITtzATyldOPSVTPocD7xoRu2S7mZyatm1b8YStjXANwwNWbUH68JI5F27gDjfVbMqM/u/wnb6QDRWitmfLAQE8MbmUgofI9fXwl/ybABkp1wwnYvB/i/Assu8/eUp1asmkUB46WFtqw7LVP1+jyy+zcR7jgeW1brNh7DmttBRO/Ilc6EnbkBoK/kKp090uwsA0gswRNk8TSQcfFdMRLT/Yi3YQdEZhQofrZzE4i+GJrc9wJ8Kxz3WSg5vPnF/AiQMHz0AcXGSYVsYINxKmE7fwRoQn4gXCiNx9jJ3Miaepp07QMEXhIom4RHXDp2zfqZYyRoomJtRADpnR0zLW1z52kavgLg/FwvHxO9I6Lpjx06HZ1ZY2Cr7Rxk8CvlRIeEEnk/E78/FYvcLTe4hbtR03jMafI5kIK35nD7MMCfYKXWlhNGNJxojSwgOTMR00S91v086brYluRqKn5yMYuLC3YnEe8J0xHklycJ9DnD0591NXTWSFJPTnNroDu+M4N8WsAEsRTIvMQUsyk8/OU6LQlA4usYJ692Hzlk3nvOyVWXklAxQMLDWxg2zjKVuHEh+R266zR7oLfApxgRi8FQAAv0iLAV86lLNwkXehbwNzL0Zzyt6/H1Mxr2y+Heks68j5i+tX2PoarFS5i7uCoNyGEi+uGgUSeBcufZAM9k1/natObam/OjTpb/CYbT6IoSZ2jE566JRf480LbSG3Xi+LPXnhGVkNSqahUDJBuXRYRLkzElWVQDtjAzSrabDZapLsjv2LK1+0zSNYnv/bhlqjuKcVgswL7v37m2KXpLsb4j/bxigJQbubhsS/ds39A2EdPSZNzo9YmEfnLRb35nmeotpTAwYTsHAPyp1P6ljDlUfSoGyPHE9rbazi0M3Or7uHBtk3oitIG9CAZbpjGpVAPgaGxvgeVz3NHv6cwPwHQ14C8CtH8D0KQ6jLHlePVGo98LAPIq80OeBRCE+Pjkz14bK+9wHs0PKQBIy5buK8nQflos6KDQ3pywHbkuz5ZnrLonpqY3lJV3ngikDPNG80NyuJvNMXS7jIb1c0j83iW1bOC1n8k8oUUi54kphpjPKyc6JGE7ozmG+dzO6gOlpqSFV1+52sbY9y5LNdX8KhxDsnAnlWLmz9IQBD74vNpqitxU0ioYwU4Vu2XJHANbFeNZK64uGVQPsTNnEyjw9HmeN3tdc42d7d9juHQfEv+JRB0mY+q9g922WrZ2TSPd2E7wZiTNmudHkNclfaqigGT95OTzPxUqnRE6q74P4HICnqsn4/yBzOKh/1uiFQ/5nn9Rqjkq50y/Fsb91hXy25fEsWHuVFFAZG4JO7MTILFlrXC7jG/rjfC0jBNnDR8Fk0SfuAx6T8o0flKMF0u28om67oovvgnAfjB9sNbVf7kfyNRq3dN0XZc432ZN88w1M2vai41XiecVByT0lawF0aK8ILiXAf5kZ0ytLrdU05Ktx0xd18X3LqkHuXM8oGneP1crGLIAKg5IdhXKAZ2p6w4yqcao6K6h8NhJbuLYZkzIGN1ja45Ed5ejPFZCOqoKkEoxoNq+WzUSUm2MqRQ9pQHCPHi/Miu+VWqyr4XvFgWkx8xA7yoyGXGpbvE83LiuWf3xtTDxaqWxOCC2mxZvXTiBgbJgJY43rJfIu1ipeLUEDQwX45du2Ddj7XknP1+qyb9UOkoGhD3/XanmaGFdQNysduZqkCZKnIwpSZynlkrEa63fkk2dZ+nR6EYw32DFI6uGkv6SASnF5hRUA/UMyTwCs/e2VLympOSYoZzQSIy15LmOC/Sa2ifJ548kmyISZTlkbUgBCTTvNudnIEh51m2WqZqHjNIqGujaTR3zVLT2idcEIGEwtBSXPGyZKoiBGqiJG5egnSTPdYc7T9sX2VZu1q1UCdI0Iwgj0n34uqHaCsUQD0ZHEGDtOWf6ek86BMPfv3ZmtP/5IJm6j+6IZuqin4+OP+mj7HsPHzm4/4r6bpdTC6aXXK9rMFqGXEKyOeKDAdJiZ24i0O058VZySxNafBAlp87UbxgsyFrMLTva3VuIgxTmfmlsYN6pa+6Fq2N1Ep81YOvJI3RSAL2ngNXCIeIVydg/tqQW29lLPaU5+jfC76yYetOrFeQhB6SlzX0rEUua8suWqaR+SZ/WajsPMSCEP82ut2javuj2zReDx7Z3TfR943amwKB4mJVxaqGbWpggKoVkxgL8AjN/yGM/SF02NCndxFYYNM26YUxcfTrtK8Skls2dp5KKSuq23BCPwvM+w4wgh1HT9bcz4VZZMATclzTV1fJ7S5vzBbB/JRHFQBTcKn3228lHhjT6+lAc8EMPyD9W0S8sU12Ry4yE7Uhq8hXMuDkVV3cWYtSSbc4CXcPvhNmFXKxhduw+eLjSau6fPyJjJmxHboNXAfizZapz878TOrYkfDUCxlct07i53/W1J/tKUrS1/HChJc8evFyvG3M/wF+3zMiHX61U5L5fMiDEfHYxN2nOgc4ZMsZ9L0ZSRTporduOxVnTtwF4oFjltzBFYbUGXLTGVI+VO+EwYUhS5NAZM1S+tThhu/8JsNToetwy1fxyx6+KW5bve6t9w/l0rdfQJ7Y24x4xSEketyYRg5OCyTG1WHGjT+pZjx8bzZpjnJitXTUgI3pW51GA/1ZO5HueNO6Xrcvp2DPpnrnTevNRcsFqIKP2eKzKVQFIiauoE4TL81PResv5AQcsUwW3qmKtNe38lBlXdsYMYyB/iHgUj6nuoIa70xXdlxsskWhzXgTh1O59e2fcO39qr6t2aXvmPM2nDWDsseJ9KxAVoyn7vDoAYc6w78ne3lOFjbRxpOmBuLPvHsxkambeexZJLfd+LXTFSmxuZ61jTNQjQarAgO2lGmgNXc6fAYorNzMpm+rWy5AeB9STUo8kuJnJodzTiD1/eao5em/CdiTx5qR8QBK2I5m6t7HnfTfVXDNoacGBCKwOQAgX56/81rS7iJklB9xTHUbtQCXzrn3m0BzV0CDBbQF+pa7EQOFXnSempo/vrVq6dJvzBk2DuGkZxDdPnam+nr0iiz7xiu+u9N3MNbrqKQHbT0LS3bdrrH3K6+q6Y92cxo+XQUtv16oAhD3/rEKBAwlbCuTz6UR4IhlTFxaa4HWbOk/xolEJZvN4z+6GI/unlVTr8IyF4Hx9JGE7EljdyMQXpGKRpwp9L7xASEUf6ichbd2fBWn/wZ73rVRzzQf+3wGyvK1jgkO1coDK0i+YRpxT3sIrtwZKLsPC2KwuMF6y4qqwgha+kLAdSTR9Zz4gLW3OfCI8BvCu470wVLWEyPzDFOSbZYfojBn1hQ7h7CHL4HNSZiS7fZW1QJdvOTLRMSJ7ifCzZEyJnjFga0m73yTm9+cDkk38lBePt4ZJ1QMSpgXIViI5gr+3TCX/cqhPS6Sdi8CQfymxr5yy4LmDLHrqQGPkhEb5zu5sGtxAiISOtXfnAxIuoAeCSneMn1txJcU4y2q9gIDuSprGkP4PkpIVw4HOkOxMchQ/DKTQZXURMEsm1PkDOXcSW5150CUYun82VJD8D4wZTJ/JSeLRCwEi/7mtoSuogaIx49OpuBK7Wt/Wk0r3bYI/NmlGrsl9uGzzsZm+0iVhdMj9PkMGiBDc2uY8yAQp1NI1NWY05B/IPXYoTzyQpwf2KqLr6zL6g9t3tjsTJs809Kg7n3R8Sf7nlJRwTZmG9OvTcm5ZGWI+P9960Go7/8LMPwNRvbxYCJBASrZkzoVBTwsoAP7GoI/AdZ/WI+LKMeYx8TdDid9omersXCJC801QWIDZ+y47mbWaUTfBajIGq+dVkhQWBaTFdn5NwJvJz0zJFqkcaORQC5Yrah0z35CKR75bqG/Cdm4D8Mls9Z+8Pt0Ar7Bi6q4BJahn+xM7k1h6O6VeIwFS0mk6gz+VMiN3tdrORgZma38/etKaeWODqtb5LZCUo+4fQBB7Vz4vmJmTKVNdX4iOnIJrvcPmFvIsifsFOhUFRN6RlV1yzRFmWglQ0f7MdF1712Snm9+qRyMneK73DPnuc6lZ9ftK8lMHVUQzcTBf6jsua7rxQKo52p77bql0y0LaMck5h5kXwPcPUJQem7Yrur2Yb+a69NEprqe9i0A7ar3Iw0NRNagkQI4X7dH3yufAKCDl82xY3xgFZFjZW/7go4CUz7NhfWMUkGFlb/mD/x+zU3/vyat8ZQAAAABJRU5ErkJggg==;" parent="1" vertex="1">
          <mxGeometry x="309" y="585" width="100" height="88" as="geometry" />
        </mxCell>
        <mxCell id="w4K-Enm0TcKxF_S3Y-CY-27" style="edgeStyle=orthogonalEdgeStyle;orthogonalLoop=1;jettySize=auto;html=1;strokeColor=#A680B8;strokeWidth=2;fontSize=12;fontColor=#A680B8;rounded=1;entryX=0.441;entryY=0.973;entryDx=0;entryDy=0;entryPerimeter=0;" parent="1" source="w4K-Enm0TcKxF_S3Y-CY-26" target="w4K-Enm0TcKxF_S3Y-CY-19" edge="1">
          <mxGeometry relative="1" as="geometry" />
        </mxCell>
        <mxCell id="w4K-Enm0TcKxF_S3Y-CY-28" value="1" style="edgeLabel;html=1;align=center;verticalAlign=middle;resizable=0;points=[];fontSize=40;fontColor=#A680B8;fontStyle=1;labelPosition=center;verticalLabelPosition=middle;horizontal=0;spacingLeft=0;spacing=5;rotation=90;" parent="w4K-Enm0TcKxF_S3Y-CY-27" vertex="1" connectable="0">
          <mxGeometry x="-0.5039" y="1" relative="1" as="geometry">
            <mxPoint x="-25" y="-180" as="offset" />
          </mxGeometry>
        </mxCell>
        <mxCell id="w4K-Enm0TcKxF_S3Y-CY-26" value="Browser Window" style="shape=image;verticalLabelPosition=bottom;labelBackgroundColor=default;verticalAlign=top;aspect=fixed;imageAspect=0;image=data:image/png,iVBORw0KGgoAAAANSUhEUgAAAIAAAACACAYAAADDPmHLAAAAAXNSR0IArs4c6QAABmZJREFUeF7tnU9oXFUYxc+dpOnfiAiCooJUcePChQgiXSRUyaQ1VFs7JpkKlS5d1j+o1dxJ6q4bN67UiM28idOaUCydF2ibahIaXHQh6iL+Q1CpihsFJXTmXRlLcFJjc2d637vz7j3ZDe+733fPOT/umxkyMwL889oB4bV6igcB8BwCAkAAPHfAc/k8AQiA5w54Lp8nAAHw3AHP5fMEIACeO+C5fJ4ABMBzBzyXzxOAAHjugOfyeQIQAM8d8Fw+TwAC4LkDnsvnCUAAPHfAc/k8AQiA5w54Lp8nAAHw3AHP5fMEIACeO+C5fJ4ABMBzBzyXzxOAAHjugOfymz4BgkK4D8Bhz31rO/lLanGHlDJqdmOtAaBwstlBrI/XgSUsdtgA4Id4ZbG7hgN31musABBFYvDAaN8HGptkSQwOlArhpFJ4mgDEYG4aWhKANKQU4x4JQIzmpqE1AUhDSjHuse0BKMlKz5Dsv7CWB+Wj5+7IHdn5Y4z+ON+6rQEIZGUCEHkBXOjoinK5V3b9upJIqTAzopSSCmphQ5d6svHaRGGmP6PUBIAaoujQ8Oiuj5xPskWBbQtAWYb3VoGv/tUlnhuWfW+tPA5k+B2Au68+Xn2tJMNxBRz85wrEiSHZl2vRH+eXtS0A77x4qnvzlo2frYQ8LLOr3nEMZBgAGLoasuptvE0EhfAwFI7VrymoQl72S+eTbFFg2wJQ11MPUig8Diznh+Senxo1BoXKkFDiKRVF7117xB+XlZ4OiLyK8Hl+NPtmi954saytAfAiAcsiCYDlAGyPJwC2E7A8v60ACGQ4a9kPZ8cPy2zvWuLaDQDlbAJ2hV0gAHYDsD09HQDYdsnH+W11C/AxANuaCYDtBCzPJwCWA7A9ngDYTsDyfAJgOQDb4wmA7QQszycAlgOwPZ4A2E7A8nwCYDkA2+MJgO0ELM8nAJYDsD2eANhOwPJ8AmA5ANvjCUDMCbz//MzWzi0qV8tg7hmZ/TrmcU23JwBNW9b8gkCGpwHsVsAlAXwCgfllVVt4Vu6+3Hw3sysIgFk/1+zW+DmFhoIqgDkBzEdCLdykqnMDcuDPBLazagQBSMDxydHKQ1EkPr3uKIHfhMI8IOYF1PlBmb2UwNZAAJJwuf4hF1n5BhDb9ceJbwH1sYqic2Jj19nhVx/9WX+tfiUB0PfqhipLcuZtBXWolSZKqFx+pP9EK2vXW0MA1nPI0PWirBwUEOPNtosz/PpeCECzibRYPzl25p6olmnqZWDc4ROAFsNsdVlRVi4KiId11icRPgHQScJgTSDD+kfW1/2G1CS/04C3AIMBr9eqKCt7BcSH69XVrycFAQHQScNQTVmGt1wBLgtgg07LJCCwD4AQgwdG/Pmm0JIMZxXQowNAEicBAdBNwlBdUVbGBMSRxnb1J3wZJQYVsHetMXGeBATAULC6bYqvh70ig/Mr9SvP9svlckf1y+5pQAwkCQEB0E3OYF1QCH+HQve1L/XG5eymLixPCaA/KQgIgMFgdVsFMjylhJpY6+3dspzdVhXLU1B4LAkICIBuagbrioXK/uu9tz8tZ2/+C8vT+J8niyafExAAg8GabPXuy2du3bQxMwVgR5wnAQEwmZrhXsffCG/vvCKmFNR/3j4WQkzfprpyvbK3/o8lLf8RgJatS2Zh6ejMXaqq6reDBxsmzmzdvG3/npd2/HGjuyAAN+pgAuuL8vR2gc767eABCFzcpMQTe2XfLyZGEwATLibQY1Keva+GK9Po7NqVP7Lze1MjCYApJxPoE7wW3j88lv3C5CgCYNLNFPYiACkMzeSWCYBJN1PYiwCkMDSTWyYAJt1MYS8CkMLQTG6ZAJh0M4W9CEAKQzO5ZQJg0s0U9moLAKBqCyn0zoktd4jMMas/H++Ei46IWMJih5QyalbOqh901FkcFMJ9UDipU8ua5BxIGoBHkpPGSToOLGHxhUROAJ3NsCY9DjR9C0iPNO5UxwECoOOSwzUEwOFwdaQRAB2XHK4hAA6HqyONAOi45HANAXA4XB1pBEDHJYdrCIDD4epIIwA6LjlcQwAcDldHGgHQccnhGgLgcLg60giAjksO1xAAh8PVkUYAdFxyuIYAOByujjQCoOOSwzUEwOFwdaQRAB2XHK4hAA6HqyONAOi45HANAXA4XB1pBEDHJYdrCIDD4epIIwA6Ljlc8zck/KDMRWEpKQAAAABJRU5ErkJggg==;fontColor=#A680B8;imageBorder=none;" parent="1" vertex="1">
          <mxGeometry x="320" y="700" width="80" height="80" as="geometry" />
        </mxCell>
        <mxCell id="w4K-Enm0TcKxF_S3Y-CY-34" value="" style="endArrow=classic;html=1;rounded=1;strokeColor=#A680B8;strokeWidth=2;fontSize=40;fontColor=#9AC7BF;entryX=0.573;entryY=1.011;entryDx=0;entryDy=0;entryPerimeter=0;" parent="1" source="w4K-Enm0TcKxF_S3Y-CY-25" target="w4K-Enm0TcKxF_S3Y-CY-6" edge="1">
          <mxGeometry width="50" height="50" relative="1" as="geometry">
            <mxPoint x="520" y="635" as="sourcePoint" />
            <mxPoint x="570" y="585" as="targetPoint" />
            <Array as="points">
              <mxPoint x="590" y="629" />
            </Array>
          </mxGeometry>
        </mxCell>
        <mxCell id="w4K-Enm0TcKxF_S3Y-CY-35" value="&lt;font color=&quot;#a680b8&quot;&gt;&lt;b&gt;3&lt;/b&gt;&lt;/font&gt;" style="edgeLabel;html=1;align=center;verticalAlign=middle;resizable=0;points=[];fontSize=40;fontColor=#9AC7BF;" parent="w4K-Enm0TcKxF_S3Y-CY-34" vertex="1" connectable="0">
          <mxGeometry x="0.3162" relative="1" as="geometry">
            <mxPoint x="-69" y="25" as="offset" />
          </mxGeometry>
        </mxCell>
        <mxCell id="w4K-Enm0TcKxF_S3Y-CY-37" value="&lt;div style=&quot;font-size: 20px; line-height: 130%;&quot;&gt;&lt;font style=&quot;font-size: 20px;&quot;&gt;1. Browser requests the application&lt;/font&gt;&lt;/div&gt;&lt;div style=&quot;font-size: 20px; line-height: 130%;&quot;&gt;&lt;span style=&quot;color:rgb(12,167,137)&quot;&gt;&lt;font style=&quot;font-size: 20px;&quot;&gt;2. Browser returns the React Single Page Application&lt;/font&gt;&lt;/span&gt;&lt;/div&gt;&lt;div style=&quot;font-size: 20px; line-height: 130%;&quot;&gt;&lt;div style=&quot;line-height: 130%;&quot;&gt;&lt;font style=&quot;font-size: 20px;&quot;&gt;3. Browser requests the API:&lt;/font&gt;&lt;/div&gt;&lt;div style=&quot;line-height: 120%;&quot;&gt;&lt;font style=&quot;font-size: 20px;&quot;&gt;&amp;nbsp; &amp;nbsp;&lt;span style=&quot;white-space: pre;&quot;&gt;&#x9;&lt;/span&gt;GET /listings&lt;/font&gt;&lt;/div&gt;&lt;div style=&quot;line-height: 120%;&quot;&gt;&lt;font style=&quot;font-size: 20px;&quot;&gt;     &lt;span style=&quot;white-space: pre;&quot;&gt;&#x9;&lt;/span&gt;PUT /listings/{id}&lt;/font&gt;&lt;/div&gt;&lt;div style=&quot;line-height: 120%;&quot;&gt;&lt;font style=&quot;font-size: 20px;&quot;&gt;     &lt;span style=&quot;white-space: pre;&quot;&gt;&#x9;&lt;/span&gt;POST /listings&lt;/font&gt;&lt;/div&gt;&lt;div style=&quot;line-height: 120%;&quot;&gt;&lt;font style=&quot;font-size: 20px;&quot;&gt;     &lt;span style=&quot;white-space: pre;&quot;&gt;&#x9;&lt;/span&gt;GET /listings/{id}/prices&lt;/font&gt;&lt;/div&gt;&lt;/div&gt;" style="text;html=1;align=left;verticalAlign=middle;resizable=1;points=[];autosize=1;strokeColor=none;fillColor=none;fontSize=40;fontColor=#A680B8;movable=1;rotatable=1;deletable=1;editable=1;locked=0;connectable=1;" parent="1" vertex="1">
          <mxGeometry x="610" y="561" width="490" height="190" as="geometry" />
        </mxCell>
        <mxCell id="sqBWd3ji-fKxp6djmKMU-7" value="" style="edgeStyle=orthogonalEdgeStyle;rounded=1;orthogonalLoop=1;jettySize=auto;html=1;fontSize=17;fontColor=#7EA6E0;strokeColor=#7EA6E0;strokeWidth=2;exitX=1;exitY=0.422;exitDx=0;exitDy=0;exitPerimeter=0;" parent="1" edge="1">
          <mxGeometry relative="1" as="geometry">
            <mxPoint x="690" y="340.4200000000001" as="sourcePoint" />
            <mxPoint x="901.4599999999998" y="312.5170370370371" as="targetPoint" />
            <Array as="points">
              <mxPoint x="820" y="340.48" />
              <mxPoint x="820" y="312.48" />
            </Array>
          </mxGeometry>
        </mxCell>
        <mxCell id="sqBWd3ji-fKxp6djmKMU-8" value="&lt;font color=&quot;#7ea6e0&quot; style=&quot;font-size: 16px;&quot;&gt;write&lt;/font&gt;" style="edgeLabel;html=1;align=center;verticalAlign=middle;resizable=0;points=[];fontSize=16;fontColor=#9AC7BF;" parent="sqBWd3ji-fKxp6djmKMU-7" vertex="1" connectable="0">
          <mxGeometry x="0.583" y="-1" relative="1" as="geometry">
            <mxPoint x="-102" y="27" as="offset" />
          </mxGeometry>
        </mxCell>
        <mxCell id="sqBWd3ji-fKxp6djmKMU-9" style="edgeStyle=orthogonalEdgeStyle;rounded=1;orthogonalLoop=1;jettySize=auto;html=1;strokeColor=#556F96;fontSize=12;fontColor=#556F96;strokeWidth=2;" parent="1" edge="1">
          <mxGeometry relative="1" as="geometry">
            <mxPoint x="690" y="372.5170370370371" as="sourcePoint" />
            <mxPoint x="901.4599999999998" y="392.5170370370371" as="targetPoint" />
            <Array as="points">
              <mxPoint x="821" y="372.48" />
              <mxPoint x="821" y="392.48" />
            </Array>
          </mxGeometry>
        </mxCell>
        <mxCell id="sqBWd3ji-fKxp6djmKMU-10" value="read" style="edgeLabel;html=1;align=center;verticalAlign=middle;resizable=0;points=[];fontSize=16;fontColor=#556F96;" parent="sqBWd3ji-fKxp6djmKMU-9" vertex="1" connectable="0">
          <mxGeometry x="0.5826" y="2" relative="1" as="geometry">
            <mxPoint x="-103" y="-19" as="offset" />
          </mxGeometry>
        </mxCell>
        <mxCell id="f-uHo4TnGvIykua3Wp4R-1" value="" style="shape=image;html=1;verticalLabelPosition=bottom;verticalAlign=top;imageAspect=0;image=img/clipart/Gear_128x128.png" vertex="1" parent="1">
          <mxGeometry x="990" y="403.37" width="60" height="60" as="geometry" />
        </mxCell>
        <mxCell id="f-uHo4TnGvIykua3Wp4R-4" value="&lt;font style=&quot;font-size: 24px;&quot;&gt;Trigger&lt;br&gt;on insert /update,insert into price log table&lt;br&gt;&lt;/font&gt;" style="whiteSpace=wrap;html=1;verticalAlign=top;" vertex="1" parent="1">
          <mxGeometry x="1210" y="344" width="240" height="140" as="geometry" />
        </mxCell>
        <mxCell id="f-uHo4TnGvIykua3Wp4R-6" value="" style="endArrow=none;dashed=1;html=1;dashPattern=1 3;strokeWidth=2;rounded=0;exitX=1;exitY=0.75;exitDx=0;exitDy=0;entryX=0;entryY=0.75;entryDx=0;entryDy=0;" edge="1" parent="1" source="f-uHo4TnGvIykua3Wp4R-1" target="f-uHo4TnGvIykua3Wp4R-4">
          <mxGeometry width="50" height="50" relative="1" as="geometry">
            <mxPoint x="1200" y="600" as="sourcePoint" />
            <mxPoint x="1250" y="550" as="targetPoint" />
          </mxGeometry>
        </mxCell>
      </root>
    </mxGraphModel>
  </diagram>
</mxfile>
